<svg xmlns="http://www.w3.org/2000/svg">

  <symbol id="top-cross" width="20" height="20" viewBox="0 0 20 20" fill="none">
    <path
      d="M16.2883 14.9617C16.4644 15.1378 16.5634 15.3767 16.5634 15.6258C16.5634 15.8749 16.4644 16.1137 16.2883 16.2898C16.1122 16.466 15.8733 16.5649 15.6242 16.5649C15.3752 16.5649 15.1363 16.466 14.9602 16.2898L10 11.3281L5.03831 16.2883C4.86219 16.4644 4.62332 16.5633 4.37425 16.5633C4.12517 16.5633 3.8863 16.4644 3.71018 16.2883C3.53406 16.1122 3.43512 15.8733 3.43512 15.6242C3.43512 15.3751 3.53406 15.1363 3.71018 14.9602L8.6719 10L3.71175 5.03828C3.53563 4.86216 3.43668 4.62329 3.43668 4.37422C3.43668 4.12515 3.53563 3.88628 3.71175 3.71016C3.88787 3.53404 4.12674 3.43509 4.37581 3.43509C4.62488 3.43509 4.86375 3.53404 5.03987 3.71016L10 8.67188L14.9617 3.70938C15.1379 3.53326 15.3767 3.43431 15.6258 3.43431C15.8749 3.43431 16.1137 3.53326 16.2899 3.70938C16.466 3.8855 16.5649 4.12437 16.5649 4.37344C16.5649 4.62251 16.466 4.86138 16.2899 5.0375L11.3282 10L16.2883 14.9617Z"
      fill="white" />
  </symbol>

  <symbol id="burger" width="19" height="15" viewBox="0 0 19 15" fill="none">
    <path
      d="M18.75 7.125C18.75 7.42337 18.6315 7.70952 18.4205 7.92049C18.2095 8.13147 17.9234 8.25 17.625 8.25H1.125C0.826631 8.25 0.540483 8.13147 0.329505 7.92049C0.118526 7.70952 0 7.42337 0 7.125C0 6.82663 0.118526 6.54048 0.329505 6.3295C0.540483 6.11853 0.826631 6 1.125 6H17.625C17.9234 6 18.2095 6.11853 18.4205 6.3295C18.6315 6.54048 18.75 6.82663 18.75 7.125ZM1.125 2.25H17.625C17.9234 2.25 18.2095 2.13147 18.4205 1.9205C18.6315 1.70952 18.75 1.42337 18.75 1.125C18.75 0.826631 18.6315 0.540483 18.4205 0.329505C18.2095 0.118526 17.9234 0 17.625 0H1.125C0.826631 0 0.540483 0.118526 0.329505 0.329505C0.118526 0.540483 0 0.826631 0 1.125C0 1.42337 0.118526 1.70952 0.329505 1.9205C0.540483 2.13147 0.826631 2.25 1.125 2.25ZM17.625 12H1.125C0.826631 12 0.540483 12.1185 0.329505 12.3295C0.118526 12.5405 0 12.8266 0 13.125C0 13.4234 0.118526 13.7095 0.329505 13.9205C0.540483 14.1315 0.826631 14.25 1.125 14.25H17.625C17.9234 14.25 18.2095 14.1315 18.4205 13.9205C18.6315 13.7095 18.75 13.4234 18.75 13.125C18.75 12.8266 18.6315 12.5405 18.4205 12.3295C18.2095 12.1185 17.9234 12 17.625 12Z"
      fill="black" />
  </symbol>

  <symbol id="cross" viewBox="0 0 24 24" fill="none">
    <path d="M18 6L6 18M6 6L18 18" stroke="currentColor" stroke-width="2" stroke-linecap="round"
      stroke-linejoin="round" />
  </symbol>

  <symbol id="arrow-down" viewBox="0 0 12 7">
    <path d="M1 1L6 6L11 1" fill="none" stroke="currentColor" stroke-width="1.5" stroke-linecap="round"
      stroke-linejoin="round" />
  </symbol>

  <symbol id="search" width="24" height="24" viewBox="0 0 24 24" fill="none">
    <path
      d="M21.7959 20.2041L17.3437 15.75C18.6787 14.0104 19.3019 11.8282 19.087 9.64607C18.8722 7.4639 17.8353 5.44516 16.1867 3.99937C14.5382 2.55357 12.4014 1.78899 10.2098 1.86071C8.01829 1.93244 5.93607 2.8351 4.38558 4.38559C2.83509 5.93608 1.93243 8.0183 1.8607 10.2098C1.78898 12.4014 2.55356 14.5382 3.99936 16.1867C5.44515 17.8353 7.46389 18.8722 9.64606 19.087C11.8282 19.3019 14.0104 18.6787 15.75 17.3438L20.2059 21.8006C20.3106 21.9053 20.4348 21.9883 20.5715 22.0449C20.7083 22.1016 20.8548 22.1307 21.0028 22.1307C21.1508 22.1307 21.2973 22.1016 21.4341 22.0449C21.5708 21.9883 21.695 21.9053 21.7997 21.8006C21.9043 21.696 21.9873 21.5717 22.044 21.435C22.1006 21.2983 22.1298 21.1517 22.1298 21.0037C22.1298 20.8558 22.1006 20.7092 22.044 20.5725C21.9873 20.4358 21.9043 20.3115 21.7997 20.2069L21.7959 20.2041ZM4.12499 10.5C4.12499 9.23915 4.49888 8.0066 5.19938 6.95824C5.89987 5.90988 6.89551 5.09278 8.06039 4.61027C9.22527 4.12776 10.5071 4.00151 11.7437 4.2475C12.9803 4.49348 14.1162 5.10064 15.0078 5.9922C15.8994 6.88376 16.5065 8.01967 16.7525 9.2563C16.9985 10.4929 16.8722 11.7747 16.3897 12.9396C15.9072 14.1045 15.0901 15.1001 14.0418 15.8006C12.9934 16.5011 11.7608 16.875 10.5 16.875C8.80977 16.8733 7.18927 16.2011 5.99411 15.0059C4.79894 13.8107 4.12673 12.1902 4.12499 10.5Z"
      fill="black" fill-opacity="0.4" />
  </symbol>

  <symbol id="search-mobile" width="21" height="21" viewBox="0 0 21 21" fill="none">
    <path
      d="M19.9399 18.348L15.4877 13.8939C16.8226 12.1544 17.4458 9.97216 17.2309 7.78998C17.0161 5.60781 15.9792 3.58907 14.3306 2.14328C12.6821 0.697486 10.5453 -0.0670986 8.35376 0.00462578C6.16221 0.0763502 4.07999 0.979012 2.5295 2.5295C0.979012 4.07999 0.0763502 6.16221 0.00462578 8.35376C-0.0670986 10.5453 0.697486 12.6821 2.14328 14.3306C3.58907 15.9792 5.60781 17.0161 7.78998 17.2309C9.97216 17.4458 12.1544 16.8226 13.8939 15.4877L18.3499 19.9445C18.4545 20.0492 18.5787 20.1322 18.7155 20.1888C18.8522 20.2455 18.9987 20.2746 19.1467 20.2746C19.2947 20.2746 19.4413 20.2455 19.578 20.1888C19.7147 20.1322 19.839 20.0492 19.9436 19.9445C20.0482 19.8399 20.1313 19.7157 20.1879 19.5789C20.2445 19.4422 20.2737 19.2957 20.2737 19.1477C20.2737 18.9997 20.2445 18.8531 20.1879 18.7164C20.1313 18.5797 20.0482 18.4554 19.9436 18.3508L19.9399 18.348ZM2.26891 8.64392C2.26891 7.38306 2.6428 6.15052 3.3433 5.10215C4.04379 4.05379 5.03943 3.23669 6.20431 2.75418C7.36919 2.27167 8.65099 2.14543 9.88762 2.39141C11.1242 2.63739 12.2602 3.24455 13.1517 4.13611C14.0433 5.02767 14.6504 6.16359 14.8964 7.40021C15.1424 8.63684 15.0162 9.91864 14.5336 11.0835C14.0511 12.2484 13.234 13.244 12.1857 13.9445C11.1373 14.645 9.90477 15.0189 8.64392 15.0189C6.95369 15.0172 5.3332 14.345 4.13803 13.1498C2.94286 11.9546 2.27065 10.3341 2.26891 8.64392Z"
      fill="black" />
  </symbol>

  <symbol id="cart" width="23" height="21" viewBox="0 0 23 21" fill="none">
    <path
      d="M9.375 18.375C9.375 18.7458 9.26503 19.1084 9.059 19.4167C8.85298 19.725 8.56014 19.9654 8.21753 20.1073C7.87492 20.2492 7.49792 20.2863 7.1342 20.214C6.77049 20.1416 6.4364 19.963 6.17417 19.7008C5.91195 19.4386 5.73337 19.1045 5.66103 18.7408C5.58868 18.3771 5.62581 18.0001 5.76773 17.6575C5.90964 17.3149 6.14996 17.022 6.45831 16.816C6.76665 16.61 7.12916 16.5 7.5 16.5C7.99728 16.5 8.47419 16.6975 8.82582 17.0492C9.17745 17.4008 9.375 17.8777 9.375 18.375ZM17.25 16.5C16.8792 16.5 16.5166 16.61 16.2083 16.816C15.9 17.022 15.6596 17.3149 15.5177 17.6575C15.3758 18.0001 15.3387 18.3771 15.411 18.7408C15.4834 19.1045 15.662 19.4386 15.9242 19.7008C16.1864 19.963 16.5205 20.1416 16.8842 20.214C17.2479 20.2863 17.6249 20.2492 17.9675 20.1073C18.3101 19.9654 18.603 19.725 18.809 19.4167C19.015 19.1084 19.125 18.7458 19.125 18.375C19.125 17.8777 18.9275 17.4008 18.5758 17.0492C18.2242 16.6975 17.7473 16.5 17.25 16.5ZM22.0753 5.20594L19.5169 13.5216C19.3535 14.0593 19.0211 14.5301 18.569 14.864C18.1169 15.1979 17.5692 15.3771 17.0072 15.375H7.77469C7.2046 15.3732 6.65046 15.1866 6.1953 14.8433C5.74015 14.5001 5.40848 14.0186 5.25 13.4709L2.04469 2.25H1.125C0.826631 2.25 0.540483 2.13147 0.329505 1.9205C0.118526 1.70952 0 1.42337 0 1.125C0 0.826631 0.118526 0.540483 0.329505 0.329505C0.540483 0.118526 0.826631 0 1.125 0H2.32687C2.73407 0.00125797 3.12988 0.134515 3.45493 0.379779C3.77998 0.625044 4.01674 0.969093 4.12969 1.36031L4.81312 3.75H21C21.1761 3.74999 21.3497 3.7913 21.5069 3.87061C21.664 3.94992 21.8004 4.06501 21.905 4.20664C22.0096 4.34826 22.0795 4.51246 22.1091 4.68602C22.1387 4.85958 22.1271 5.03766 22.0753 5.20594ZM19.4766 6H5.45531L7.41375 12.8531C7.43617 12.9315 7.48354 13.0005 7.54867 13.0495C7.6138 13.0986 7.69315 13.1251 7.77469 13.125H17.0072C17.0875 13.1252 17.1656 13.0996 17.2303 13.052C17.2949 13.0044 17.3426 12.9373 17.3662 12.8606L19.4766 6Z"
      fill="black" />
  </symbol>

  <symbol id="profile" width="21" height="21" viewBox="0 0 21 21" fill="none" xmlns="http://www.w3.org/2000/svg">
    <path
      d="M10.125 0C8.12247 0 6.1649 0.593821 4.49986 1.70637C2.83481 2.81892 1.53706 4.40023 0.770724 6.25033C0.00438702 8.10043 -0.196122 10.1362 0.194554 12.1003C0.585229 14.0643 1.54954 15.8685 2.96555 17.2845C4.38156 18.7005 6.18566 19.6648 8.14971 20.0555C10.1138 20.4461 12.1496 20.2456 13.9997 19.4793C15.8498 18.7129 17.4311 17.4152 18.5436 15.7501C19.6562 14.0851 20.25 12.1275 20.25 10.125C20.247 7.4406 19.1793 4.86699 17.2812 2.96883C15.383 1.07067 12.8094 0.00297771 10.125 0ZM5.58469 16.5534C6.10695 15.8393 6.79028 15.2585 7.57918 14.8581C8.36808 14.4577 9.24031 14.249 10.125 14.249C11.0097 14.249 11.8819 14.4577 12.6708 14.8581C13.4597 15.2585 14.1431 15.8393 14.6653 16.5534C13.3384 17.4945 11.7518 18 10.125 18C8.49823 18 6.91165 17.4945 5.58469 16.5534ZM7.5 9.375C7.5 8.85582 7.65396 8.34831 7.9424 7.91663C8.23083 7.48495 8.6408 7.1485 9.12046 6.94982C9.60012 6.75114 10.1279 6.69915 10.6371 6.80044C11.1463 6.90172 11.614 7.15173 11.9812 7.51884C12.3483 7.88596 12.5983 8.35369 12.6996 8.86289C12.8009 9.37209 12.7489 9.89989 12.5502 10.3795C12.3515 10.8592 12.0151 11.2692 11.5834 11.5576C11.1517 11.846 10.6442 12 10.125 12C9.42881 12 8.76113 11.7234 8.26885 11.2312C7.77657 10.7389 7.5 10.0712 7.5 9.375ZM16.3125 14.9944C15.5833 14.0669 14.6539 13.3164 13.5938 12.7987C14.2694 12.1146 14.7276 11.2458 14.9108 10.3019C15.0939 9.35788 14.9938 8.38083 14.623 7.49361C14.2523 6.6064 13.6274 5.84864 12.827 5.31568C12.0267 4.78271 11.0866 4.49834 10.125 4.49834C9.16343 4.49834 8.22333 4.78271 7.42297 5.31568C6.62262 5.84864 5.99775 6.6064 5.62698 7.49361C5.25621 8.38083 5.1561 9.35788 5.33924 10.3019C5.52239 11.2458 5.98061 12.1146 6.65625 12.7987C5.5961 13.3164 4.66668 14.0669 3.9375 14.9944C3.02161 13.8333 2.45114 12.4379 2.2914 10.9677C2.13165 9.49754 2.3891 8.01211 3.03425 6.68144C3.67941 5.35078 4.6862 4.22866 5.93939 3.44355C7.19257 2.65843 8.6415 2.24203 10.1203 2.24203C11.5991 2.24203 13.0481 2.65843 14.3012 3.44355C15.5544 4.22866 16.5612 5.35078 17.2064 6.68144C17.8515 8.01211 18.109 9.49754 17.9492 10.9677C17.7895 12.4379 17.219 13.8333 16.3031 14.9944H16.3125Z"
      fill="black" />
  </symbol>

  <symbol id="small-star" width="56" height="56" viewBox="0 0 56 56" fill="none">
    <path
      d="M28 0C28.9506 15.0527 40.9472 27.0495 56 28C40.9472 28.9506 28.9506 40.9472 28 56C27.0495 40.9472 15.0527 28.9506 0 28C15.0527 27.0495 27.0495 15.0527 28 0Z"
      fill="black" />
  </symbol>

  <symbol id="big-star" width="104" height="104" viewBox="0 0 104 104" fill="none">
    <path
      d="M52 0C53.7654 27.955 76.0448 50.2347 104 52C76.0448 53.7654 53.7654 76.0448 52 104C50.2347 76.0448 27.955 53.7654 0 52C27.955 50.2347 50.2347 27.955 52 0Z"
      fill="black" />
  </symbol>

  <!-- brands -->


  <symbol id="versace" width="167" height="34" viewBox="0 0 167 34" fill="none">
    <path fill-rule="evenodd" clip-rule="evenodd"
      d="M150.179 0.655656H166.482V3.25336C166.008 3.09436 165.513 3.0124 165.013 3.01061H155.642V15.1491H164.758C165.413 15.1491 165.996 15.0772 166.481 14.9548V17.5411C166.068 17.4443 165.499 17.3952 164.794 17.3952H155.642V29.9466H164.733C165.232 29.9466 165.826 29.874 166.481 29.7159V32.508H150.203C150.333 32.017 150.399 31.511 150.398 31.003V2.19691C150.398 1.56617 150.325 1.04435 150.179 0.655656ZM146.405 8.92219L141.695 8.88659C141.464 6.23976 139.947 3.67765 136.609 3.20567C129.459 2.56211 127.444 10.415 127.626 16.1572C127.809 21.6922 128.694 30.2015 136.075 30.2015C139.171 30.2015 142.144 27.0207 142.047 24.3383L146.405 24.3027C146.089 29.8377 139.741 33.0419 136.718 33.1516C126.389 33.5039 122.066 26.6206 121.848 16.7993C121.654 7.90346 125.296 0 135.504 0C144.244 0.121734 145.931 5.29294 146.405 8.92219ZM72.9408 28.8901L76.0611 26.2803C77.687 28.9635 79.0225 30.1886 82.2517 30.1886C85.5286 30.1886 88.285 28.1982 88.285 24.6786C88.285 22.9423 87.5802 21.522 86.1849 20.4542C85.5528 19.9559 83.951 19.0945 81.4259 17.8928C77.6507 16.0846 73.9731 13.7289 73.9731 8.99551C73.9731 3.02271 79.0467 0.388695 84.3995 0.193636C87.5681 0.0726134 91.5014 1.82174 93.091 3.78728L89.9231 6.22695C89.3581 5.17255 88.5181 4.29083 87.4923 3.6754C86.4665 3.05998 85.2932 2.73381 84.0969 2.73154C80.0541 2.73154 76.8498 7.41724 80.2 10.6464C81.0493 11.4715 82.7863 12.4909 85.4324 13.7047C89.6561 15.6838 93.2612 18.0501 93.2612 23.2825C93.2612 25.0908 92.7878 26.7779 91.853 28.3199C89.9722 31.4273 86.8278 32.9814 82.4339 32.9814C77.3838 32.9814 76.3892 31.8281 72.9408 28.8901ZM28.4893 0.655656H44.7782V3.25336C44.3051 3.09442 43.8094 3.01246 43.3103 3.01061H33.9396V15.1491H43.0554C43.7111 15.1491 44.2941 15.0772 44.7789 14.9548V17.5411C44.366 17.4443 43.7958 17.3952 43.1046 17.3952H33.9396V29.9466H43.0312C43.5289 29.9466 44.124 29.874 44.7789 29.7159V32.508H28.5143C28.6332 32.0151 28.6941 31.5101 28.6958 31.003V2.19691C28.6958 1.56617 28.6225 1.04435 28.4893 0.655656ZM0 0.655656H5.92368V0.947533C5.92368 1.21449 6.0084 1.56617 6.15434 2.01538L14.5049 27.1545L23.0754 1.90574C23.2085 1.48145 23.2818 1.06856 23.2818 0.655656H26.1586C25.8674 1.16537 25.6489 1.61529 25.515 2.01538L15.7308 31.2095C15.6339 31.4886 15.5492 31.9257 15.4766 32.5087H10.6208C10.5474 32.0674 10.4379 31.6329 10.2933 31.2095L0.704065 2.24603C0.482555 1.71187 0.251627 1.18166 0.0113903 0.655656H0ZM62.9145 17.262C66.7986 16.4968 69.7729 13.5232 69.7729 9.27457C69.7729 3.70186 65.1114 0.654944 59.8918 0.654944H50.3509C50.4841 1.14117 50.5574 1.65089 50.5574 2.18481V30.9774C50.5574 31.5968 50.4841 32.1186 50.3509 32.5073H56.0319C55.8929 32.0093 55.8235 31.4944 55.8254 30.9774V17.7476L57.6457 17.9419L67.1631 32.5073H72.8803L62.9145 17.262ZM61.9314 14.8345C60.8998 15.562 59.6611 15.9258 58.2409 15.9258H55.8133V2.97572H57.986C59.8441 2.97572 61.2878 3.43632 62.32 4.35822C63.7282 5.63394 64.4443 7.35744 64.4443 9.51804C64.4443 11.8488 63.6064 13.6207 61.9314 14.8345ZM120.901 31.1853L110.293 1.71211C110.175 1.37134 110.105 1.01572 110.086 0.655656H105.497C105.497 1.03225 105.436 1.43233 105.29 1.83313L95.0096 31.1853C94.875 31.6089 94.6572 32.0467 94.366 32.508H97.3275C97.3161 32.0225 97.3766 31.5733 97.5105 31.1853L100.556 22.5294H112.27L115.281 31.186C115.439 31.658 115.511 32.0951 115.511 32.508H121.654C121.301 32.0104 121.047 31.5612 120.901 31.1853ZM101.358 20.1865L106.31 5.80266L111.397 20.1865H101.358Z"
      fill="white" />
  </symbol>

  <symbol id="zara" width="91" height="38" viewBox="0 0 91 38" fill="none">
    <path
      d="M86.3324 36.8604L72.8501 0.0243821L72.841 0H72.5749L69.7985 7.56966L64.7441 21.3504L64.7323 21.3395C62.9806 19.8056 60.5091 18.8468 57.3965 18.4897L56.4472 18.3924L57.389 18.2726C62.5219 17.3573 65.9723 14.1403 65.9723 10.2644C65.9723 4.94948 60.9348 1.2397 53.7189 1.2397H38.7052V1.5088H43.0678V28.9721L32.4727 0.0242918L32.4632 0H32.1971L29.4207 7.56966L18.7123 36.7655L18.6464 36.7731C18.4634 36.7955 18.2824 36.8133 18.1034 36.8268C17.834 36.8477 17.5662 36.8603 17.2976 36.8603H6.47765L27.0448 1.50871L27.1977 1.24304H2.04322V12.1789H2.31013C2.35745 6.85219 5.48348 1.50871 12.3902 1.50871H20.7226L0 37.1251H27.9173V26.6479H27.6504C27.614 31.2906 24.9619 35.7003 19.1947 36.696L19.0114 36.7271L23.4036 24.7469H35.7075L40.141 36.8604H35.7675V37.1252H52.9333V36.8604H48.5411V18.5878H53.6091C58.7665 18.5878 61.7245 20.8743 61.7245 24.859V28.1003C61.7245 28.4575 61.749 28.9796 61.776 29.4163V29.4322L59.052 36.8587H55.4934V37.1235H62.8596V36.8587H59.3393L61.8199 30.0961C61.825 30.1615 61.8276 30.2009 61.8276 30.2009L61.896 30.8103L61.9619 31.2134C62.3758 33.707 63.3369 35.5401 64.8177 36.6616L65.0305 36.815C66.1555 37.5912 67.5535 37.9843 69.1879 37.9843C71.3527 37.9843 72.7962 37.4487 73.988 36.1881L73.8318 36.0422C72.7337 37.048 71.8122 37.4555 70.6576 37.4555C68.6903 37.4555 67.6608 35.0875 67.6608 32.7523V28.2109C67.6712 27.0841 67.4934 25.9634 67.1345 24.8942L67.0856 24.7535V24.7484H76.0851L80.5186 36.862H76.1452V37.1269H91V36.862L86.3324 36.8604ZM23.5015 24.4819L29.5627 7.95697L35.6104 24.4819H23.5015ZM48.5438 18.322V1.50871H52.4122C57.5798 1.50871 60.308 4.5572 60.308 10.3215C60.308 16.452 58.742 18.322 53.6091 18.322H48.5438ZM66.9807 24.4819L66.9545 24.4165C66.5546 23.4499 65.9723 22.568 65.239 21.8181L64.9856 21.5666L64.9586 21.5415L69.937 7.95697L75.9846 24.4819H66.9807Z"
      fill="white" />
  </symbol>

  <symbol id="gucci" width="156" height="33" viewBox="0 0 156 33" fill="none">
    <path
      d="M141.312 9.43605L141.021 9.52824C139.887 7.18474 138.268 5.31921 136.162 3.93163C134.089 2.54403 131.482 1.85022 128.34 1.85022C126.591 1.85022 124.923 2.20481 123.336 2.91399C121.749 3.59242 120.356 4.56374 119.158 5.82795C117.992 7.06135 117.053 8.55686 116.34 10.3145C115.627 12.0721 115.271 14.0147 115.271 16.1424C115.271 18.27 115.627 20.2126 116.34 21.9702C117.053 23.7278 117.992 25.2387 119.158 26.503C120.356 27.7364 121.749 28.6923 123.336 29.3707C124.923 30.049 126.591 30.3882 128.34 30.3882C131.45 30.3882 133.976 29.9257 135.919 29.0006C137.895 28.0448 139.563 26.5955 140.924 24.6529L141.215 24.7451L141.118 27.7053C140.373 28.4453 139.515 29.1083 138.543 29.6941C137.572 30.2492 136.519 30.7271 135.385 31.128C134.284 31.498 133.134 31.7755 131.936 31.9605C130.738 32.1766 129.539 32.2846 128.341 32.2846C125.847 32.2846 123.466 31.8991 121.199 31.1282C118.932 30.3573 116.94 29.2781 115.223 27.8905C113.506 26.4721 112.146 24.7762 111.142 22.8027C110.138 20.7985 109.636 18.5783 109.636 16.1423C109.636 13.7063 110.138 11.5016 111.142 9.5282C112.146 7.52386 113.506 5.8125 115.223 4.39412C116.94 2.97568 118.932 1.89644 121.199 1.15639C123.466 0.385491 125.847 3.98854e-05 128.341 3.98854e-05C129.539 3.98854e-05 130.738 0.0925452 131.936 0.277556C133.134 0.462566 134.284 0.755512 135.385 1.15639C136.519 1.52642 137.572 2.00437 138.543 2.59027C139.515 3.1453 140.373 3.79283 141.118 4.53287L141.312 9.43605ZM34.252 18.2704C33.8959 18.4244 33.5558 18.6249 33.2317 18.872C32.9076 19.1185 32.7456 19.4577 32.7456 19.8896V25.5786C31.1909 27.7063 29.199 29.356 26.7698 30.5277C24.3406 31.6995 21.6523 32.2854 18.7048 32.2854C16.2108 32.2854 13.8302 31.8999 11.563 31.129C9.29573 30.3581 7.30378 29.2789 5.58713 27.8913C3.87051 26.4729 2.51014 24.777 1.50605 22.8035C0.502017 20.7993 0 18.5791 0 16.1431C0 13.7071 0.502017 11.5024 1.50605 9.52895C2.51014 7.52462 3.87051 5.81326 5.58713 4.39488C7.30378 2.97644 9.29573 1.89721 11.563 1.15719C13.8302 0.386263 16.2108 0.000798165 18.7048 0.000798165C19.9032 0.000798165 21.1016 0.0933033 22.3001 0.278314C23.4984 0.463324 24.6483 0.756271 25.7495 1.15715C26.8831 1.52717 27.9358 2.00513 28.9075 2.59102C29.8791 3.14605 30.7375 3.79359 31.4825 4.53363L31.6771 9.43641L31.3856 9.52859C30.252 7.18508 28.6325 5.31953 26.5272 3.93195C24.4543 2.54435 21.8469 1.85054 18.7052 1.85054C16.9561 1.85054 15.2881 2.20515 13.7011 2.91435C12.114 3.59275 10.7212 4.56406 9.52279 5.82827C8.35675 7.0617 7.41748 8.55722 6.70498 10.3148C5.99236 12.0724 5.63605 14.0151 5.63605 16.1427C5.63605 18.2395 5.97615 20.1667 6.65635 21.9243C7.36894 23.6819 8.30824 25.1928 9.47425 26.4571C10.6726 27.6905 12.0654 28.6618 13.6524 29.371C15.2395 30.0494 16.9238 30.3886 18.7052 30.3886C22.0737 30.3886 24.9563 29.7719 27.3531 28.5385V19.8892C27.3531 19.4577 27.1751 19.1185 26.819 18.8716C26.4949 18.6251 26.171 18.4246 25.8473 18.27L25.8917 18.039C26.0534 18.0672 26.345 18.098 26.7662 18.1312C27.1875 18.1594 27.6248 18.1902 28.078 18.2234H32.2565C32.6451 18.1952 33.0176 18.1645 33.3739 18.1312C33.73 18.103 34.0052 18.0723 34.1996 18.039L34.252 18.2704ZM69.442 0.971783C69.1179 1.12577 68.794 1.32629 68.4703 1.57335C68.1462 1.81984 67.9682 2.28237 67.9362 2.96092C67.9066 3.70097 67.8743 4.64145 67.8393 5.78237C67.8393 6.89246 67.8245 8.15669 67.7949 9.57505C67.7949 10.9935 67.7801 12.5353 67.7505 14.2004V19.3808C67.7208 21.385 67.4616 23.0964 66.9728 24.5148C66.487 25.9332 65.8392 27.1203 65.0295 28.0762C64.2522 29.0322 63.3777 29.7876 62.406 30.3427C61.4666 30.8977 60.5273 31.314 59.5881 31.5915C58.6811 31.9 57.8228 32.085 57.0132 32.1465C56.2034 32.239 55.5718 32.2853 55.1184 32.2853C53.2722 32.2853 51.4907 32.054 49.7741 31.5915C48.0574 31.16 46.5513 30.4508 45.2558 29.4638C43.9602 28.4771 42.9238 27.1974 42.1465 25.6249C41.3691 24.0523 40.9804 22.1405 40.9804 19.8895V14.663V9.85256C40.9804 8.37245 40.9656 7.04655 40.936 5.87484C40.936 4.67224 40.9212 3.70093 40.8915 2.96088C40.8619 2.28249 40.6839 1.81996 40.3574 1.57331C40.0333 1.32681 39.7094 1.12629 39.3857 0.971744L39.4302 0.74076C39.5919 0.768961 39.8512 0.79969 40.2078 0.832946C40.5965 0.861147 40.9852 0.891876 41.3739 0.925132C41.7951 0.925132 42.2 0.939232 42.5885 0.967434H44.3375C44.7262 0.939232 45.131 0.925132 45.5521 0.925132C45.9733 0.896931 46.362 0.866202 46.7181 0.832946C47.1067 0.804745 47.3819 0.774016 47.5437 0.74076L47.5881 0.971744C47.232 1.12573 46.892 1.32625 46.5679 1.57331C46.2764 1.8198 46.1143 2.28233 46.0817 2.96088C46.0521 3.70093 46.0198 4.67224 45.9849 5.87484V19.8895C45.9849 23.2505 46.8108 25.7327 48.4626 27.3362C50.1145 28.9396 52.5599 29.7413 55.7989 29.7413C56.7381 29.7413 57.807 29.6333 59.0054 29.4173C60.2039 29.1708 61.3213 28.6774 62.3577 27.9372C63.4266 27.1971 64.3173 26.1488 65.0299 24.792C65.7748 23.4352 66.1473 21.6314 66.1473 19.3804C66.1473 16.9444 66.1325 14.8631 66.1029 13.1363C66.1029 11.3787 66.088 9.88319 66.0584 8.64976C66.0584 7.38552 66.0436 6.30628 66.014 5.41203C65.9844 4.51784 65.9521 3.70071 65.9171 2.96065C65.8874 2.28225 65.7094 1.81972 65.3829 1.57307C65.0588 1.32657 64.735 1.12604 64.4113 0.971464L64.4557 0.740521C64.8118 0.801978 65.2167 0.863741 65.6703 0.92581C66.1235 0.954011 66.5446 0.968112 66.9335 0.968112C67.2896 0.968112 67.6945 0.954011 68.1481 0.92581C68.6339 0.864353 69.055 0.80259 69.4113 0.740521L69.442 0.971783ZM104.696 9.43605L104.405 9.52824C103.271 7.18474 101.652 5.31921 99.5462 3.93163C97.4733 2.54403 94.8659 1.85022 91.7242 1.85022C89.9752 1.85022 88.3071 2.20481 86.72 2.91399C85.1329 3.59242 83.7402 4.56374 82.5418 5.82795C81.3758 7.06135 80.4365 8.55686 79.7239 10.3145C79.0114 12.0721 78.6551 14.0148 78.6551 16.1424C78.6551 18.27 79.0114 20.2126 79.7239 21.9702C80.4366 23.7278 81.3759 25.2387 82.5418 26.503C83.7402 27.7364 85.1329 28.6923 86.72 29.3707C88.3071 30.049 89.9752 30.3882 91.7243 30.3882C94.8336 30.3882 97.36 29.9257 99.3034 29.0006C101.279 28.0448 102.947 26.5955 104.307 24.6529L104.599 24.7451L104.502 27.7053C103.757 28.4453 102.899 29.1083 101.927 29.6941C100.955 30.2491 99.9027 30.7271 98.7691 31.128C97.6679 31.498 96.5181 31.7755 95.3196 31.9605C94.1212 32.1765 92.9228 32.2846 91.7245 32.2846C89.2304 32.2846 86.8498 31.8991 84.5826 31.1282C82.3153 30.3573 80.3234 29.2781 78.6068 27.8905C76.8901 26.4721 75.5297 24.7762 74.5257 22.8027C73.5216 20.7984 73.0196 18.5783 73.0196 16.1423C73.0196 13.7063 73.5216 11.5016 74.5257 9.52816C75.5297 7.52382 76.8901 5.81246 78.6068 4.39408C80.3234 2.97564 82.3153 1.8964 84.5826 1.15635C86.8499 0.385452 89.2305 0 91.7245 0C92.9228 0 94.1212 0.0925053 95.3197 0.277516C96.5181 0.462526 97.6679 0.755472 98.7691 1.15635C99.9027 1.52638 100.955 2.00433 101.927 2.59023C102.899 3.14526 103.757 3.79279 104.502 4.53283L104.696 9.43605ZM155.956 31.4987C155.794 31.4705 155.519 31.4397 155.13 31.4065C154.774 31.4065 154.385 31.3924 153.964 31.3642C153.543 31.3642 153.138 31.3501 152.749 31.3219H149.835C149.446 31.3501 149.057 31.3808 148.669 31.4141C148.312 31.4423 148.037 31.473 147.843 31.5062L147.798 31.3209C148.122 31.1669 148.446 30.9664 148.77 30.7193C149.094 30.4729 149.272 30.0103 149.304 29.3318C149.334 28.5917 149.349 27.8209 149.349 27.0191C149.378 26.2174 149.393 25.3077 149.393 24.2902V20.8212V16.1497V11.4782V7.96295C149.393 6.94539 149.378 6.05116 149.349 5.28026C149.349 4.47855 149.334 3.70767 149.304 2.96763C149.275 2.28923 149.097 1.82671 148.77 1.58005C148.446 1.30254 148.122 1.08677 147.798 0.932754L147.843 0.747504C148.037 0.808962 148.312 0.855214 148.669 0.886262C149.057 0.886262 149.446 0.900363 149.835 0.928564C150.256 0.956765 150.661 0.970866 151.049 0.970866H152.749C153.138 0.942665 153.543 0.928564 153.964 0.928564C154.385 0.900363 154.774 0.869634 155.13 0.836378C155.519 0.808177 155.794 0.777448 155.956 0.744192L156 0.929522C155.644 1.08351 155.304 1.29926 154.98 1.57678C154.688 1.82327 154.526 2.2858 154.494 2.96436C154.464 3.7044 154.432 4.47527 154.397 5.27699V27.0159C154.426 27.8176 154.459 28.5885 154.494 29.3285C154.523 30.0069 154.685 30.4694 154.98 30.7161C155.304 30.9626 155.644 31.1631 156 31.3176L155.956 31.4987Z"
      fill="white" />
  </symbol>

  <symbol id="prada" width="194" height="32" viewBox="0 0 194 32" fill="none">
    <path fill-rule="evenodd" clip-rule="evenodd"
      d="M0 0.90175L2.93217 4.20848V28.4106L0.758974 31.5774L14.0684 31.5978L11.6695 28.6839L11.4204 19.9679L24.2536 20.0375C28.1434 18.7425 32.1421 15.9815 32.3342 10.3996C32.2728 4.99032 28.9703 1.52086 25.136 0.830605L0 0.90175ZM10.9449 2.44953V17.9977L20.7911 18.0689C23.0315 16.2623 24.7298 14.8787 24.6619 10.5411C24.6298 7.00433 23.8832 3.92011 20.5873 2.45029L10.9449 2.44953ZM38.4936 0.725402L41.4258 4.03289V28.2351L39.2526 31.4033L52.5613 31.4222L50.1624 28.5083L49.9133 19.7923H49.9666L63.7165 31.5206L75.1274 31.4275L64.7129 22.4193H56.0187L52.9543 19.8089L62.7465 19.8619C66.6363 18.5669 70.6342 15.8059 70.8271 10.224C70.7665 4.81548 67.4639 1.34527 63.6289 0.65577L38.4936 0.725402ZM49.4378 2.27318V17.8214L59.284 17.8925C61.5251 16.0859 63.2227 14.7024 63.1548 10.364C63.1227 6.82798 62.3761 3.74301 59.0802 2.27318H49.4378ZM86.1132 0.690586H97.5891L112.528 28.4106C113.174 30.551 115.108 30.2869 116.398 31.2254H101.935L104.108 30.5457L103.972 28.4818L100.237 22.5011L87.5391 22.5722L84.8232 28.3418C84.7326 28.998 84.0306 29.496 84.5514 30.3111L85.5705 31.2958L79.3234 31.155L82.04 30.3111L92.2924 8.71181V7.23365L87.9606 1.45502L86.1132 0.690586ZM88.3419 20.5976L93.616 10.6123L99.1071 20.5416L88.3419 20.5976ZM163.715 0.751135H175.19L190.129 28.4712C190.776 30.6116 192.709 30.3475 194 31.286H179.536L181.709 30.6048L181.573 28.5408L177.839 22.5616L165.141 22.6328L162.425 28.4008C162.333 29.0585 161.632 29.5565 162.152 30.3717L163.171 31.3563L156.925 31.2156L159.642 30.3717L169.894 8.77235V7.29345L165.562 1.51557L163.715 0.751135ZM165.944 20.6589L171.218 10.6736L176.709 20.6013L165.944 20.6589ZM120.367 0.402222L140.81 0.514994C147.394 2.05672 151.582 6.07868 152.881 13.0948L152.826 18.5669C151.626 24.8186 147.693 29.1319 140.756 31.3155L120.258 31.373L120.255 30.7107C123.372 30.4754 123.621 30.1196 123.629 28.2699V3.33506C123.594 1.96741 123.32 1.11594 120.312 1.02209L120.367 0.402222ZM131.988 2.53581L131.968 29.5134C134.664 29.5225 137.003 29.7753 138.325 29.1009C141.319 27.7333 142.71 25.633 142.837 23.6598L142.765 7.73016C142.766 5.1818 140 3.38274 138.404 2.91425C137.262 2.49116 134.983 2.47375 131.988 2.53581Z"
      fill="white" stroke="white" stroke-width="1.02419" stroke-miterlimit="2.613" />
  </symbol>

  <symbol id="calvin-clein" width="207" height="34" viewBox="0 0 207 34" fill="none">
    <path fill-rule="evenodd" clip-rule="evenodd"
      d="M16.6481 30.4522C9.40945 30.4522 3.2308 23.8867 3.2308 16.7255C3.2308 9.59072 9.28013 2.89479 16.5961 2.89479C21.4053 2.89479 24.8682 5.22146 27.6867 8.86674H31.2281C30.1681 6.95347 29.0308 5.19603 27.2988 3.82545C24.3255 1.42142 20.4735 0 16.6481 0C7.47074 0 0 7.57464 0 16.7C0 25.8508 7.57464 33.3481 16.7 33.3481C20.4227 33.3481 24.068 31.9786 26.9893 29.6774C28.8252 28.204 30.1173 26.2907 31.3586 24.3255H27.8172C25.0241 27.9708 21.4573 30.4522 16.6481 30.4522ZM53.3574 13.0028C51.1346 10.1334 48.1094 8.32404 44.3613 8.32404C37.64 8.32404 32.108 13.7798 32.108 20.5012C32.108 27.2214 37.6665 32.728 44.3613 32.728C48.2653 32.728 50.9788 31.0988 53.3574 28.1001V32.1842H56.2787V8.89216H53.3574V13.0028ZM44.2066 30.0388C39.0614 30.0388 35.0027 25.5668 35.0027 20.5266C35.0027 15.5107 39.036 11.0132 44.2066 11.0132C49.3507 11.0132 53.3574 15.5118 53.3574 20.5266C53.3574 25.5668 49.3242 30.0388 44.2066 30.0388ZM59.8201 32.1842H62.9492V0.670921H59.8201V32.1842ZM74.7627 28.487L66.8521 8.89216H63.7495L73.2374 32.1842H76.3908L85.8533 8.89216H82.8027L74.7627 28.487ZM87.1454 32.1842H90.2734V8.89216H87.1454V32.1842ZM87.1454 5.89348H90.2734V0.670921H87.1454V5.89348ZM103.743 8.32293C100.795 8.32293 98.7014 9.87478 96.7627 11.9428V8.89216H93.8668V32.1842H96.9428V17.991C96.9174 14.2429 100.019 11.0121 103.793 11.0121C108.523 11.0121 110.902 15.1228 110.902 19.3627V32.1853H113.796V19.3627C113.798 13.3134 110.257 8.32293 103.743 8.32293ZM142.829 0.670921L128.611 18.7415V0.670921H125.535V32.1842H128.611V23.5242L132.644 18.5094L142.907 32.1842H146.812L134.608 16.0269L146.812 0.670921H142.829ZM147.948 32.1842H151V0.670921H147.948V32.1842ZM176.256 14.7602C174.136 10.8043 169.896 8.32293 165.423 8.32293C158.755 8.32293 153.118 13.8815 153.118 20.5509C153.118 27.2711 158.806 32.7269 165.477 32.7269C168.655 32.7269 171.785 31.4602 174.084 29.2629C175.481 27.9443 176.308 26.2896 177.056 24.5576H173.775C172.119 27.7895 169.198 30.0377 165.422 30.0377C163.123 30.0377 160.874 29.107 159.168 27.5298C157.408 25.9282 156.634 23.9619 156.296 21.6363H177.781C177.782 19.2068 177.445 16.8802 176.256 14.7602ZM156.401 18.9482C157.334 14.5801 160.771 11.0121 165.477 11.0121C169.432 11.0121 173.672 13.4427 174.603 18.9482H156.401ZM180.057 32.1842H183.132V8.89216H180.057V32.1842ZM180.057 5.99738H183.132V0.670921H180.057V5.99738ZM196.654 8.32293C193.654 8.32293 191.56 9.87478 189.595 11.9428V8.89216H186.648V32.1842H189.751V17.991C189.725 14.2175 192.905 11.0121 196.704 11.0121C201.411 11.0121 203.893 15.1228 203.893 19.3627V32.1853H206.788V19.3627C206.788 13.3134 203.193 8.32293 196.654 8.32293Z"
      fill="white" />
  </symbol>

  <symbol id="star-full" viewBox="0 0 18 17">
    <path
      d="M8.79255 0L11.4118 5.63991L17.585 6.38809L13.0305 10.6219L14.2266 16.7243L8.79255 13.701L3.35851 16.7243L4.55458 10.6219L8.67844e-05 6.38809L6.17334 5.63991L8.79255 0Z"
      fill="#FFC633" />
  </symbol>

  <symbol id="star-half" viewBox="0 0 18 17">
    <defs>
      <clipPath id="half-clip-star">
        <rect x="0" y="0" width="9" height="17" />
      </clipPath>
    </defs>
    <path
      d="M8.79255 0L11.4118 5.63991L17.585 6.38809L13.0305 10.6219L14.2266 16.7243L8.79255 13.701L3.35851 16.7243L4.55458 10.6219L8.67844e-05 6.38809L6.17334 5.63991L8.79255 0Z"
      fill="#FFC633" clip-path="url(#half-clip-star)" />
  </symbol>

  <symbol id="post" width="21" height="16" viewBox="0 0 21 16" fill="none">
    <path
      d="M19.125 0H1.125C0.826631 0 0.540483 0.118526 0.329505 0.329505C0.118526 0.540483 0 0.826631 0 1.125V13.875C0 14.3723 0.197544 14.8492 0.549175 15.2008C0.900805 15.5525 1.37772 15.75 1.875 15.75H18.375C18.8723 15.75 19.3492 15.5525 19.7008 15.2008C20.0525 14.8492 20.25 14.3723 20.25 13.875V1.125C20.25 0.826631 20.1315 0.540483 19.9205 0.329505C19.7095 0.118526 19.4234 0 19.125 0ZM10.125 7.84875L4.01719 2.25H16.2328L10.125 7.84875ZM6.82406 7.875L2.25 12.0675V3.6825L6.82406 7.875ZM8.48906 9.40125L9.36469 10.2047C9.57219 10.395 9.84348 10.5005 10.125 10.5005C10.4065 10.5005 10.6778 10.395 10.8853 10.2047L11.7609 9.40125L16.2328 13.5H4.01719L8.48906 9.40125ZM13.4259 7.875L18 3.6825V12.0675L13.4259 7.875Z"
      fill="black" fill-opacity="0.4" />
  </symbol>


  <!-- reviews icons  -->

  <symbol id="check-mark" width="20" height="20" viewBox="0 0 20 20" fill="none">
    <path
      d="M9.75 0C7.82164 0 5.93657 0.571828 4.33319 1.64317C2.72982 2.71451 1.48013 4.23726 0.742179 6.01884C0.00422452 7.80042 -0.188858 9.76082 0.187348 11.6521C0.563554 13.5434 1.49215 15.2807 2.85571 16.6443C4.21928 18.0079 5.95656 18.9365 7.84787 19.3127C9.73919 19.6889 11.6996 19.4958 13.4812 18.7578C15.2627 18.0199 16.7855 16.7702 17.8568 15.1668C18.9282 13.5634 19.5 11.6784 19.5 9.75C19.4973 7.16498 18.4692 4.68661 16.6413 2.85872C14.8134 1.03084 12.335 0.00272983 9.75 0ZM14.0306 8.03063L8.78063 13.2806C8.71097 13.3504 8.62826 13.4057 8.53721 13.4434C8.44616 13.4812 8.34857 13.5006 8.25 13.5006C8.15144 13.5006 8.05385 13.4812 7.9628 13.4434C7.87175 13.4057 7.78903 13.3504 7.71938 13.2806L5.46938 11.0306C5.32865 10.8899 5.24959 10.699 5.24959 10.5C5.24959 10.301 5.32865 10.1101 5.46938 9.96937C5.61011 9.82864 5.80098 9.74958 6 9.74958C6.19903 9.74958 6.3899 9.82864 6.53063 9.96937L8.25 11.6897L12.9694 6.96937C13.0391 6.89969 13.1218 6.84442 13.2128 6.8067C13.3039 6.76899 13.4015 6.74958 13.5 6.74958C13.5986 6.74958 13.6961 6.76899 13.7872 6.8067C13.8782 6.84442 13.9609 6.89969 14.0306 6.96937C14.1003 7.03906 14.1556 7.12178 14.1933 7.21283C14.231 7.30387 14.2504 7.40145 14.2504 7.5C14.2504 7.59855 14.231 7.69613 14.1933 7.78717C14.1556 7.87822 14.1003 7.96094 14.0306 8.03063Z"
      fill="#01AB31" />
  </symbol>

  <symbol id="arrow" width="24" height="24" viewBox="0 0 24 24" fill="none">
    <path
      d="M9.70406 4.4541L2.95406 11.2041C2.84918 11.3086 2.76597 11.4328 2.70919 11.5696C2.6524 11.7063 2.62317 11.8529 2.62317 12.001C2.62317 12.149 2.6524 12.2957 2.70919 12.4324C2.76597 12.5691 2.84918 12.6933 2.95406 12.7979L9.70406 19.5479C9.91541 19.7592 10.2021 19.8779 10.5009 19.8779C10.7998 19.8779 11.0865 19.7592 11.2978 19.5479C11.5092 19.3365 11.6279 19.0499 11.6279 18.751C11.6279 18.4521 11.5092 18.1654 11.2978 17.9541L6.46875 13.125L20.25 13.125C20.5484 13.125 20.8345 13.0065 21.0455 12.7955C21.2565 12.5846 21.375 12.2984 21.375 12C21.375 11.7017 21.2565 11.4155 21.0455 11.2045C20.8345 10.9936 20.5484 10.875 20.25 10.875L6.46875 10.875L11.2988 6.04598C11.5101 5.83463 11.6288 5.54799 11.6288 5.2491C11.6288 4.95022 11.5101 4.66357 11.2988 4.45223C11.0874 4.24088 10.8008 4.12215 10.5019 4.12215C10.203 4.12215 9.91634 4.24088 9.705 4.45223L9.70406 4.4541Z"
      fill="black" />
  </symbol>

  <!-- fotter'svg -->


  <symbol id="bird" width="28" height="28" viewBox="0 0 28 28" fill="none">
    <circle cx="14" cy="14" r="14" fill="white" />
    <circle cx="14" cy="14" r="13.5" stroke="black" stroke-opacity="0.2" />
    <path
      d="M20.2071 10.9831C19.7881 11.1693 19.3458 11.2857 18.8802 11.3556C19.3458 11.0762 19.7183 10.6339 19.8812 10.0985C19.4389 10.3546 18.9501 10.5408 18.4146 10.6572C17.9956 10.2149 17.3904 9.93555 16.7386 9.93555C15.4815 9.93555 14.4572 10.9598 14.4572 12.2169C14.4572 12.4031 14.4805 12.5661 14.5271 12.729C12.6415 12.6359 10.9421 11.728 9.80141 10.3313C9.61518 10.6805 9.49878 11.0529 9.49878 11.472C9.49878 12.2634 9.89453 12.9618 10.5231 13.3808C10.1506 13.3576 9.80141 13.2644 9.4755 13.1015V13.1248C9.4755 14.2422 10.267 15.1733 11.3145 15.3828C11.1283 15.4294 10.9188 15.4527 10.7093 15.4527C10.5696 15.4527 10.4067 15.4294 10.267 15.4061C10.5696 16.314 11.4077 16.9891 12.4087 16.9891C11.6172 17.5943 10.6395 17.9668 9.56862 17.9668C9.38239 17.9668 9.19616 17.9668 9.0332 17.9435C10.0575 18.5953 11.2447 18.9678 12.5483 18.9678C16.7618 18.9678 19.0665 15.476 19.0665 12.4497C19.0665 12.3566 19.0665 12.2402 19.0665 12.1471C19.5088 11.8444 19.9045 11.4487 20.2071 10.9831Z"
      fill="black" />
  </symbol>

  <symbol id="facebook" width="28" height="28" viewBox="0 0 28 28" fill="none">
    <circle cx="14" cy="14" r="14" fill="white" />
    <circle cx="14" cy="14" r="13.5" stroke="black" stroke-opacity="0.2" />
    <path
      d="M12.7087 20.3038V14.7503H10.8398V12.5859H12.7087V10.9898C12.7087 9.13752 13.84 8.12891 15.4924 8.12891C16.2839 8.12891 16.9642 8.18784 17.1624 8.21417V10.1499L16.0164 10.1505C15.1178 10.1505 14.9438 10.5775 14.9438 11.2041V12.5859H17.087L16.8079 14.7503H14.9438V20.3038H12.7087Z"
      fill="black" />
  </symbol>

  <symbol id="instagram" width="28" height="28" viewBox="0 0 28 28" fill="none">
    <circle cx="14" cy="14" r="14" fill="white" />
    <circle cx="14" cy="14" r="13.5" stroke="black" stroke-opacity="0.2" />
    <path
      d="M14.0008 8.44721C15.8095 8.44721 16.0237 8.45398 16.7382 8.48656C17.1678 8.49182 17.5933 8.5707 17.9962 8.71979C18.2884 8.83248 18.5538 9.00511 18.7753 9.22656C18.9967 9.44802 19.1694 9.71339 19.282 10.0056C19.4311 10.4085 19.51 10.8341 19.5153 11.2637C19.5475 11.9782 19.5546 12.1924 19.5546 14.0011C19.5546 15.8098 19.5479 16.024 19.5153 16.7385C19.51 17.1681 19.4311 17.5936 19.282 17.9966C19.1694 18.2888 18.9967 18.5541 18.7753 18.7756C18.5538 18.997 18.2884 19.1697 17.9962 19.2824C17.5933 19.4315 17.1678 19.5103 16.7382 19.5156C16.024 19.5479 15.8098 19.5549 14.0008 19.5549C12.1917 19.5549 11.9775 19.5482 11.2633 19.5156C10.8337 19.5103 10.4082 19.4315 10.0053 19.2824C9.71307 19.1697 9.44769 18.997 9.22624 18.7756C9.00479 18.5541 8.83216 18.2888 8.71947 17.9966C8.57038 17.5936 8.4915 17.1681 8.48624 16.7385C8.45398 16.024 8.44689 15.8098 8.44689 14.0011C8.44689 12.1924 8.45366 11.9782 8.48624 11.2637C8.4915 10.8341 8.57038 10.4085 8.71947 10.0056C8.83216 9.71339 9.00479 9.44802 9.22624 9.22656C9.44769 9.00511 9.71307 8.83248 10.0053 8.71979C10.4082 8.5707 10.8337 8.49182 11.2633 8.48656C11.9779 8.4543 12.192 8.44721 14.0008 8.44721ZM14.0008 7.22656C12.162 7.22656 11.9304 7.2343 11.2079 7.26721C10.6456 7.27839 10.0893 7.38485 9.56269 7.58205C9.11092 7.75226 8.70172 8.019 8.36366 8.36366C8.01869 8.70184 7.75172 9.11127 7.5814 9.56334C7.3842 10.09 7.27775 10.6463 7.26656 11.2085C7.2343 11.9304 7.22656 12.162 7.22656 14.0008C7.22656 15.8395 7.2343 16.0711 7.26721 16.7937C7.27839 17.3559 7.38485 17.9122 7.58205 18.4388C7.75218 18.8908 8.01892 19.3002 8.36366 19.6385C8.70191 19.9832 9.11133 20.25 9.56334 20.4201C10.09 20.6173 10.6463 20.7238 11.2085 20.7349C11.9311 20.7672 12.1617 20.7756 14.0014 20.7756C15.8411 20.7756 16.0717 20.7679 16.7943 20.7349C17.3565 20.7238 17.9128 20.6173 18.4395 20.4201C18.8893 20.2457 19.2978 19.9794 19.6389 19.6381C19.98 19.2968 20.246 18.8882 20.4201 18.4382C20.6173 17.9115 20.7238 17.3553 20.735 16.793C20.7672 16.0711 20.775 15.8395 20.775 14.0008C20.775 12.162 20.7672 11.9304 20.7343 11.2079C20.7231 10.6456 20.6167 10.0893 20.4195 9.56269C20.2493 9.11068 19.9826 8.70126 19.6379 8.36301C19.2996 8.01828 18.8902 7.75153 18.4382 7.5814C17.9115 7.3842 17.3553 7.27775 16.793 7.26656C16.0711 7.2343 15.8395 7.22656 14.0008 7.22656Z"
      fill="black" />
    <path
      d="M14.0021 10.5234C13.3141 10.5234 12.6416 10.7275 12.0695 11.1097C11.4974 11.492 11.0515 12.0353 10.7882 12.6709C10.5249 13.3066 10.4561 14.006 10.5903 14.6808C10.7245 15.3556 11.0558 15.9755 11.5423 16.462C12.0288 16.9485 12.6487 17.2798 13.3235 17.414C13.9983 17.5482 14.6977 17.4794 15.3334 17.2161C15.969 16.9528 16.5123 16.5069 16.8946 15.9348C17.2768 15.3627 17.4809 14.6902 17.4809 14.0021C17.4809 13.0795 17.1144 12.1947 16.462 11.5423C15.8096 10.8899 14.9248 10.5234 14.0021 10.5234ZM14.0021 16.2602C13.5555 16.2602 13.119 16.1278 12.7476 15.8797C12.3763 15.6315 12.0869 15.2789 11.916 14.8663C11.7451 14.4537 11.7003 13.9996 11.7875 13.5616C11.8746 13.1236 12.0897 12.7213 12.4055 12.4055C12.7213 12.0897 13.1236 11.8746 13.5616 11.7875C13.9996 11.7003 14.4537 11.7451 14.8663 11.916C15.2789 12.0869 15.6315 12.3763 15.8797 12.7476C16.1278 13.119 16.2602 13.5555 16.2602 14.0021C16.2602 14.601 16.0223 15.1754 15.5988 15.5988C15.1754 16.0223 14.601 16.2602 14.0021 16.2602Z"
      fill="black" />
    <path
      d="M17.6176 11.1981C18.0665 11.1981 18.4305 10.8341 18.4305 10.3852C18.4305 9.93621 18.0665 9.57227 17.6176 9.57227C17.1686 9.57227 16.8047 9.93621 16.8047 10.3852C16.8047 10.8341 17.1686 11.1981 17.6176 11.1981Z"
      fill="black" />
  </symbol>

  <symbol id="github" width="28" height="28" viewBox="0 0 28 28" fill="none">
    <circle cx="14" cy="14" r="14" fill="white" />
    <circle cx="14" cy="14" r="13.5" stroke="black" stroke-opacity="0.2" />
    <path clip-rule="evenodd"
      d="M14.6068 7.22656C11.0159 7.22656 8.12695 10.1155 8.12695 13.7065C8.12695 16.5684 9.98992 18.9984 12.5549 19.8624C12.8789 19.9164 12.9869 19.7274 12.9869 19.5384C12.9869 19.3764 12.9869 18.9714 12.9869 18.4314C11.1779 18.8364 10.7999 17.5674 10.7999 17.5674C10.5029 16.8114 10.0709 16.6224 10.0709 16.6224C9.47693 16.2174 10.1249 16.2174 10.1249 16.2174C10.7729 16.2714 11.1239 16.8924 11.1239 16.8924C11.6909 17.8914 12.6359 17.5944 13.0139 17.4324C13.0679 17.0004 13.2299 16.7304 13.4189 16.5684C11.9879 16.4064 10.4759 15.8394 10.4759 13.3555C10.4759 12.6535 10.7189 12.0595 11.1509 11.6275C11.0969 11.4655 10.8539 10.8175 11.2049 9.89952C11.2049 9.89952 11.7449 9.73752 12.9869 10.5745C13.4999 10.4395 14.0669 10.3585 14.6068 10.3585C15.1468 10.3585 15.7138 10.4395 16.2268 10.5745C17.4688 9.73752 18.0088 9.89952 18.0088 9.89952C18.3598 10.7905 18.1438 11.4385 18.0628 11.6275C18.4678 12.0865 18.7378 12.6535 18.7378 13.3555C18.7378 15.8394 17.2258 16.3794 15.7678 16.5414C16.0108 16.7304 16.1998 17.1354 16.1998 17.7294C16.1998 18.5934 16.1998 19.2954 16.1998 19.5114C16.1998 19.6734 16.3078 19.8894 16.6588 19.8354C19.2238 18.9984 21.0867 16.5684 21.0867 13.7065C21.0867 10.1155 18.1978 7.22656 14.6068 7.22656Z"
      fill="black" />
  </symbol>

  <!-- footer-down__icons -->



  <symbol id="visa" fill="none" viewBox="8.96 4.48 47.06 30.48">
    <g filter="url(#filter0_dd_16603_514)">
      <rect x="9.18835" y="4.70605" width="46.6143" height="30.0304" rx="5.37857" fill="white"></rect>
      <rect x="9.0763" y="4.594" width="46.8384" height="30.2545" rx="5.49062" stroke="#D6DCE5" stroke-width="0.224107">
      </rect>
      <path
        d="M32.2105 14.827L30.0362 24.9906H27.4071L29.5817 14.827H32.2105ZM43.2722 21.3897L44.6563 17.5729L45.4528 21.3897H43.2722ZM46.2056 24.9906H48.6375L46.5153 14.827H44.2707C43.7663 14.827 43.3407 15.1204 43.1512 15.5727L39.2067 24.9906H41.9677L42.5159 23.4729H45.889L46.2056 24.9906ZM39.3438 21.6721C39.355 18.9896 35.6341 18.842 35.6599 17.6437C35.6676 17.2786 36.0153 16.8913 36.7748 16.7919C37.1522 16.7427 38.1896 16.705 39.3676 17.2471L39.8289 15.0918C39.1961 14.8621 38.3819 14.6411 37.3693 14.6411C34.7707 14.6411 32.9417 16.0227 32.9262 18.0011C32.9098 19.4641 34.2319 20.2805 35.2282 20.7669C36.2524 21.2652 36.5966 21.5843 36.5921 22.0298C36.5854 22.7121 35.775 23.0126 35.0191 23.0245C33.697 23.0454 32.9298 22.6677 32.3182 22.3827L31.8418 24.6097C32.4559 24.8918 33.5898 25.137 34.7662 25.1495C37.5279 25.1495 39.3348 23.7849 39.3438 21.6721ZM28.4536 14.827L24.1938 24.9906H21.4142L19.3181 16.8794C19.1907 16.3798 19.0801 16.1971 18.6931 15.9864C18.0616 15.6438 17.0178 15.3218 16.0994 15.1223L16.1621 14.827H20.6357C21.2057 14.827 21.7188 15.2066 21.8481 15.8632L22.9554 21.7448L25.6913 14.827H28.4536Z"
        fill="#1434CB"></path>
    </g>
    <defs>
      <filter id="filter0_dd_16603_514" x="-5.24521e-05" y="-0.000209332" width="64.9911" height="48.4071"
        filterUnits="userSpaceOnUse" color-interpolation-filters="sRGB">
        <feFlood flood-opacity="0" result="BackgroundImageFix"></feFlood>
        <feColorMatrix in="SourceAlpha" type="matrix" values="0 0 0 0 0 0 0 0 0 0 0 0 0 0 0 0 0 0 127 0"
          result="hardAlpha"></feColorMatrix>
        <feOffset dy="0.448214"></feOffset>
        <feGaussianBlur stdDeviation="2.24107"></feGaussianBlur>
        <feColorMatrix type="matrix" values="0 0 0 0 0.717647 0 0 0 0 0.717647 0 0 0 0 0.717647 0 0 0 0.08 0">
        </feColorMatrix>
        <feBlend mode="normal" in2="BackgroundImageFix" result="effect1_dropShadow_16603_514"></feBlend>
        <feColorMatrix in="SourceAlpha" type="matrix" values="0 0 0 0 0 0 0 0 0 0 0 0 0 0 0 0 0 0 127 0"
          result="hardAlpha"></feColorMatrix>
        <feOffset dy="4.48214"></feOffset>
        <feGaussianBlur stdDeviation="4.48214"></feGaussianBlur>
        <feColorMatrix type="matrix" values="0 0 0 0 0.717647 0 0 0 0 0.717647 0 0 0 0 0.717647 0 0 0 0.08 0">
        </feColorMatrix>
        <feBlend mode="normal" in2="effect1_dropShadow_16603_514" result="effect2_dropShadow_16603_514"></feBlend>
        <feBlend mode="normal" in="SourceGraphic" in2="effect2_dropShadow_16603_514" result="shape"></feBlend>
      </filter>
    </defs>
  </symbol>

  <symbol id="master-card" fill="none" viewBox="8.96 4.48 47.06 30.48">
    <g filter="url(#filter0_dd_16603_516)">
      <rect x="9.18835" y="4.70605" width="46.6143" height="30.0304" rx="5.37857" fill="white"></rect>
      <rect x="9.0763" y="4.594" width="46.8384" height="30.2545" rx="5.49062" stroke="#D6DCE5" stroke-width="0.224107">
      </rect>
      <path d="M35.844 13.5544H28.9807V25.888H35.844V13.5544Z" fill="#FF5F00"></path>
      <path
        d="M29.4165 19.7212C29.4155 18.5334 29.6846 17.3609 30.2037 16.2925C30.7227 15.2241 31.478 14.2878 32.4124 13.5544C31.2553 12.6449 29.8656 12.0793 28.4022 11.9222C26.9389 11.7652 25.4608 12.023 24.1371 12.6662C22.8133 13.3095 21.6972 14.3122 20.9164 15.5598C20.1355 16.8073 19.7214 18.2494 19.7214 19.7212C19.7214 21.193 20.1355 22.6351 20.9164 23.8826C21.6972 25.1302 22.8133 26.1329 24.1371 26.7761C25.4608 27.4194 26.9389 27.6772 28.4022 27.5201C29.8656 27.3631 31.2553 26.7975 32.4124 25.8879C31.478 25.1546 30.7227 24.2183 30.2037 23.1499C29.6846 22.0815 29.4155 20.909 29.4165 19.7212Z"
        fill="#EB001B"></path>
      <path
        d="M45.103 19.7212C45.103 21.1929 44.689 22.635 43.9082 23.8826C43.1274 25.1302 42.0113 26.1329 40.6876 26.7761C39.3638 27.4194 37.8858 27.6772 36.4225 27.5201C34.9591 27.3631 33.5695 26.7975 32.4124 25.8879C33.346 25.1539 34.1007 24.2174 34.6196 23.1492C35.1386 22.0809 35.4082 20.9088 35.4082 19.7212C35.4082 18.5336 35.1386 17.3615 34.6196 16.2932C34.1007 15.225 33.346 14.2885 32.4124 13.5544C33.5695 12.6449 34.9591 12.0793 36.4225 11.9222C37.8858 11.7652 39.3638 12.023 40.6876 12.6663C42.0113 13.3095 43.1274 14.3122 43.9082 15.5598C44.689 16.8074 45.103 18.2494 45.103 19.7212Z"
        fill="#F79E1B"></path>
      <path
        d="M44.3546 24.5816V24.3291H44.4564V24.2777H44.1971V24.3291H44.299V24.5816H44.3546ZM44.8581 24.5816V24.2772H44.7786L44.6872 24.4866L44.5957 24.2772H44.5162V24.5816H44.5723V24.352L44.658 24.55H44.7162L44.802 24.3515V24.5816H44.8581Z"
        fill="#F79E1B"></path>
    </g>
    <defs>
      <filter id="filter0_dd_16603_516" x="-5.24521e-05" y="-0.000209332" width="64.9911" height="48.4071"
        filterUnits="userSpaceOnUse" color-interpolation-filters="sRGB">
        <feFlood flood-opacity="0" result="BackgroundImageFix"></feFlood>
        <feColorMatrix in="SourceAlpha" type="matrix" values="0 0 0 0 0 0 0 0 0 0 0 0 0 0 0 0 0 0 127 0"
          result="hardAlpha"></feColorMatrix>
        <feOffset dy="0.448214"></feOffset>
        <feGaussianBlur stdDeviation="2.24107"></feGaussianBlur>
        <feColorMatrix type="matrix" values="0 0 0 0 0.717647 0 0 0 0 0.717647 0 0 0 0 0.717647 0 0 0 0.08 0">
        </feColorMatrix>
        <feBlend mode="normal" in2="BackgroundImageFix" result="effect1_dropShadow_16603_516"></feBlend>
        <feColorMatrix in="SourceAlpha" type="matrix" values="0 0 0 0 0 0 0 0 0 0 0 0 0 0 0 0 0 0 127 0"
          result="hardAlpha"></feColorMatrix>
        <feOffset dy="4.48214"></feOffset>
        <feGaussianBlur stdDeviation="4.48214"></feGaussianBlur>
        <feColorMatrix type="matrix" values="0 0 0 0 0.717647 0 0 0 0 0.717647 0 0 0 0 0.717647 0 0 0 0.08 0">
        </feColorMatrix>
        <feBlend mode="normal" in2="effect1_dropShadow_16603_516" result="effect2_dropShadow_16603_516"></feBlend>
        <feBlend mode="normal" in="SourceGraphic" in2="effect2_dropShadow_16603_516" result="shape"></feBlend>
      </filter>
    </defs>
  </symbol>

  <symbol id="paypal" fill="none" viewBox="8.96 4.48 47.06 30.48">
    <g filter="url(#filter0_dd_16603_518)">
      <rect x="9.18835" y="4.70605" width="46.6143" height="30.0304" rx="5.37857" fill="white"></rect>
      <rect x="9.0763" y="4.594" width="46.8384" height="30.2545" rx="5.49062" stroke="#D6DCE5" stroke-width="0.224107">
      </rect>
      <path fill-rule="evenodd" clip-rule="evenodd"
        d="M19.3855 15.3521H16.698C16.5141 15.3521 16.3577 15.4857 16.329 15.6672L15.2421 22.5579C15.2205 22.6939 15.3258 22.8165 15.4637 22.8165H16.7468C16.9307 22.8165 17.0871 22.6828 17.1158 22.501L17.4089 20.6425C17.4372 20.4605 17.594 20.327 17.7775 20.327H18.6283C20.3986 20.327 21.4203 19.4704 21.6873 17.773C21.8075 17.0304 21.6923 16.4469 21.3445 16.0381C20.9626 15.5895 20.285 15.3521 19.3855 15.3521ZM19.6956 17.8688C19.5487 18.8331 18.8118 18.8331 18.0994 18.8331H17.6938L17.9783 17.0322C17.9952 16.9234 18.0895 16.8433 18.1996 16.8433H18.3854C18.8708 16.8433 19.3286 16.8433 19.5652 17.1198C19.7061 17.2849 19.7494 17.53 19.6956 17.8688ZM27.4191 17.8379H26.1321C26.0225 17.8379 25.9277 17.9181 25.9108 18.027L25.8539 18.3868L25.7639 18.2565C25.4853 17.8521 24.8641 17.717 24.2439 17.717C22.8217 17.717 21.6071 18.794 21.3705 20.3048C21.2475 21.0583 21.4223 21.7789 21.8498 22.2815C22.2421 22.7436 22.8033 22.9361 23.4709 22.9361C24.6167 22.9361 25.2523 22.1993 25.2523 22.1993L25.1949 22.557C25.1732 22.6937 25.2785 22.8163 25.4156 22.8163H26.5749C26.7593 22.8163 26.9148 22.6826 26.9439 22.5008L27.6395 18.0965C27.6615 17.961 27.5566 17.8379 27.4191 17.8379ZM25.6251 20.3424C25.5009 21.0776 24.9173 21.5711 24.1732 21.5711C23.7995 21.5711 23.5007 21.4513 23.309 21.2242C23.1188 20.9987 23.0464 20.6776 23.107 20.3201C23.223 19.5911 23.8164 19.0816 24.5493 19.0816C24.9146 19.0816 25.2118 19.2029 25.4074 19.432C25.6035 19.6635 25.6813 19.9864 25.6251 20.3424ZM32.98 17.8377H34.2734C34.4545 17.8377 34.5602 18.0408 34.4572 18.1894L30.1558 24.3975C30.0862 24.4981 29.9714 24.5579 29.8489 24.5579H28.5572C28.3753 24.5579 28.2691 24.3531 28.3744 24.2042L29.7137 22.3139L28.2893 18.1339C28.24 17.9886 28.3473 17.8377 28.5019 17.8377H29.7727C29.9378 17.8377 30.0835 17.9461 30.1311 18.1041L30.8871 20.6287L32.6709 18.0015C32.7407 17.899 32.8567 17.8377 32.98 17.8377Z"
        fill="#253B80"></path>
      <path fill-rule="evenodd" clip-rule="evenodd"
        d="M47.0026 22.5573L48.1055 15.5405C48.1224 15.4316 48.2168 15.3514 48.3265 15.3511H49.5682C49.7053 15.3511 49.8106 15.474 49.7889 15.61L48.7013 22.5004C48.6729 22.6822 48.5165 22.8159 48.3323 22.8159H47.2234C47.0862 22.8159 46.9809 22.6933 47.0026 22.5573ZM38.5556 15.3514H35.8677C35.6842 15.3514 35.5278 15.4851 35.499 15.6666L34.4121 22.5573C34.3905 22.6933 34.4958 22.8159 34.6331 22.8159H36.0122C36.1404 22.8159 36.2501 22.7224 36.2701 22.5951L36.5785 20.6419C36.6069 20.4598 36.7637 20.3264 36.9471 20.3264H37.7975C39.5682 20.3264 40.5897 19.4698 40.8568 17.7724C40.9774 17.0298 40.8616 16.4463 40.5139 16.0375C40.1321 15.5889 39.4551 15.3514 38.5556 15.3514ZM38.8657 17.8682C38.7191 18.8324 37.9823 18.8324 37.2694 18.8324H36.8642L37.1492 17.0316C37.1661 16.9228 37.2596 16.8426 37.37 16.8426H37.5558C38.0408 16.8426 38.4991 16.8426 38.7355 17.1192C38.8766 17.2843 38.9195 17.5294 38.8657 17.8682ZM46.5885 17.8373H45.3024C45.1919 17.8373 45.098 17.9175 45.0815 18.0264L45.0246 18.3862L44.9342 18.2559C44.6556 17.8515 44.0347 17.7164 43.4146 17.7164C41.9923 17.7164 40.7781 18.7934 40.5415 20.3042C40.4189 21.0577 40.593 21.7783 41.0205 22.2809C41.4135 22.7429 41.974 22.9355 42.6415 22.9355C43.7874 22.9355 44.4228 22.1987 44.4228 22.1987L44.3655 22.5564C44.3439 22.6931 44.4492 22.8157 44.5872 22.8157H45.746C45.9295 22.8157 46.0859 22.682 46.1146 22.5002L46.8105 18.0958C46.8318 17.9604 46.7265 17.8373 46.5885 17.8373ZM44.7947 20.3418C44.6712 21.077 44.0869 21.5705 43.3426 21.5705C42.9696 21.5705 42.6703 21.4507 42.4784 21.2235C42.2882 20.9981 42.2167 20.677 42.2766 20.3195C42.3931 19.5905 42.9858 19.081 43.7187 19.081C44.0842 19.081 44.3812 19.2023 44.577 19.4314C44.7738 19.6629 44.8516 19.9858 44.7947 20.3418Z"
        fill="#179BD7"></path>
    </g>
    <defs>
      <filter id="filter0_dd_16603_518" x="-5.24521e-05" y="-0.000209332" width="64.9911" height="48.4071"
        filterUnits="userSpaceOnUse" color-interpolation-filters="sRGB">
        <feFlood flood-opacity="0" result="BackgroundImageFix"></feFlood>
        <feColorMatrix in="SourceAlpha" type="matrix" values="0 0 0 0 0 0 0 0 0 0 0 0 0 0 0 0 0 0 127 0"
          result="hardAlpha"></feColorMatrix>
        <feOffset dy="0.448214"></feOffset>
        <feGaussianBlur stdDeviation="2.24107"></feGaussianBlur>
        <feColorMatrix type="matrix" values="0 0 0 0 0.717647 0 0 0 0 0.717647 0 0 0 0 0.717647 0 0 0 0.08 0">
        </feColorMatrix>
        <feBlend mode="normal" in2="BackgroundImageFix" result="effect1_dropShadow_16603_518"></feBlend>
        <feColorMatrix in="SourceAlpha" type="matrix" values="0 0 0 0 0 0 0 0 0 0 0 0 0 0 0 0 0 0 127 0"
          result="hardAlpha"></feColorMatrix>
        <feOffset dy="4.48214"></feOffset>
        <feGaussianBlur stdDeviation="4.48214"></feGaussianBlur>
        <feColorMatrix type="matrix" values="0 0 0 0 0.717647 0 0 0 0 0.717647 0 0 0 0 0.717647 0 0 0 0.08 0">
        </feColorMatrix>
        <feBlend mode="normal" in2="effect1_dropShadow_16603_518" result="effect2_dropShadow_16603_518"></feBlend>
        <feBlend mode="normal" in="SourceGraphic" in2="effect2_dropShadow_16603_518" result="shape"></feBlend>
      </filter>
    </defs>
  </symbol>

  <symbol id="apple-pay" fill="none" viewBox="8.96 4.48 47.06 30.48">
    <g filter="url(#filter0_dd_16603_520)">
      <rect x="9.18835" y="4.70605" width="46.6143" height="30.0304" rx="5.37857" fill="white"></rect>
      <rect x="9.0763" y="4.594" width="46.8384" height="30.2545" rx="5.49062" stroke="#D6DCE5" stroke-width="0.224107">
      </rect>
      <path
        d="M24.2654 15.7878C24.5764 15.3988 24.7874 14.8765 24.7317 14.3428C24.2765 14.3654 23.7209 14.6431 23.3993 15.0324C23.1105 15.3658 22.8549 15.9099 22.9215 16.4213C23.4326 16.4656 23.9432 16.1658 24.2654 15.7878Z"
        fill="#000008"></path>
      <path
        d="M24.7259 16.5211C23.9838 16.4769 23.3528 16.9423 22.9984 16.9423C22.6438 16.9423 22.101 16.5434 21.514 16.5542C20.75 16.5654 20.0411 16.9974 19.6534 17.6844C18.8559 19.0589 19.4429 21.0977 20.2184 22.2171C20.595 22.7709 21.0488 23.3807 21.6469 23.3588C22.2119 23.3366 22.4334 22.9929 23.1202 22.9929C23.8065 22.9929 24.006 23.3588 24.6041 23.3477C25.2244 23.3366 25.6122 22.7936 25.9887 22.2392C26.4208 21.6079 26.5976 20.9983 26.6087 20.9649C26.5976 20.9538 25.4127 20.4992 25.4017 19.1362C25.3905 17.9949 26.332 17.4521 26.3763 17.4184C25.8446 16.6321 25.0139 16.5434 24.7259 16.5211Z"
        fill="#000008"></path>
      <path
        d="M31.188 14.9766C32.8011 14.9766 33.9243 16.0885 33.9243 17.7073C33.9243 19.3319 32.7779 20.4496 31.1476 20.4496H29.3616V23.2898H28.0712V14.9766L31.188 14.9766ZM29.3616 19.3665H30.8422C31.9656 19.3665 32.605 18.7616 32.605 17.7131C32.605 16.6646 31.9656 16.0655 30.848 16.0655H29.3616V19.3665Z"
        fill="#000008"></path>
      <path
        d="M34.2614 21.5673C34.2614 20.5071 35.0737 19.8562 36.5141 19.7755L38.1731 19.6776V19.211C38.1731 18.5369 37.718 18.1337 36.9577 18.1337C36.2374 18.1337 35.788 18.4793 35.6787 19.0209H34.5034C34.5726 17.9262 35.5058 17.1197 37.0037 17.1197C38.4727 17.1197 39.4117 17.8974 39.4117 19.113V23.2898H38.2192V22.2931H38.1905C37.8391 22.9672 37.0728 23.3934 36.2778 23.3934C35.091 23.3934 34.2614 22.656 34.2614 21.5673ZM38.1731 21.02V20.5418L36.681 20.6339C35.9378 20.6858 35.5173 21.0142 35.5173 21.5327C35.5173 22.0626 35.9551 22.4083 36.6234 22.4083C37.4933 22.4083 38.1731 21.8092 38.1731 21.02Z"
        fill="#000008"></path>
      <path
        d="M40.5376 25.5193V24.5111C40.6296 24.5341 40.837 24.5341 40.9408 24.5341C41.5168 24.5341 41.828 24.2922 42.018 23.67C42.018 23.6585 42.1276 23.3013 42.1276 23.2955L39.9384 17.2291H41.2864L42.819 22.1606H42.8418L44.3745 17.2291H45.6879L43.4179 23.6066C42.8996 25.0757 42.3005 25.5481 41.0446 25.5481C40.9408 25.5481 40.6296 25.5366 40.5376 25.5193Z"
        fill="#000008"></path>
    </g>
    <defs>
      <filter id="filter0_dd_16603_520" x="-5.24521e-05" y="-0.000209332" width="64.9911" height="48.4071"
        filterUnits="userSpaceOnUse" color-interpolation-filters="sRGB">
        <feFlood flood-opacity="0" result="BackgroundImageFix"></feFlood>
        <feColorMatrix in="SourceAlpha" type="matrix" values="0 0 0 0 0 0 0 0 0 0 0 0 0 0 0 0 0 0 127 0"
          result="hardAlpha"></feColorMatrix>
        <feOffset dy="0.448214"></feOffset>
        <feGaussianBlur stdDeviation="2.24107"></feGaussianBlur>
        <feColorMatrix type="matrix" values="0 0 0 0 0.717647 0 0 0 0 0.717647 0 0 0 0 0.717647 0 0 0 0.08 0">
        </feColorMatrix>
        <feBlend mode="normal" in2="BackgroundImageFix" result="effect1_dropShadow_16603_520"></feBlend>
        <feColorMatrix in="SourceAlpha" type="matrix" values="0 0 0 0 0 0 0 0 0 0 0 0 0 0 0 0 0 0 127 0"
          result="hardAlpha"></feColorMatrix>
        <feOffset dy="4.48214"></feOffset>
        <feGaussianBlur stdDeviation="4.48214"></feGaussianBlur>
        <feColorMatrix type="matrix" values="0 0 0 0 0.717647 0 0 0 0 0.717647 0 0 0 0 0.717647 0 0 0 0.08 0">
        </feColorMatrix>
        <feBlend mode="normal" in2="effect1_dropShadow_16603_520" result="effect2_dropShadow_16603_520"></feBlend>
        <feBlend mode="normal" in="SourceGraphic" in2="effect2_dropShadow_16603_520" result="shape"></feBlend>
      </filter>
    </defs>
  </symbol>

  <symbol id="google-pay" fill="none" viewBox="8.96 4.48 47.06 30.48">
    <g filter="url(#filter0_dd_16603_522)">
      <rect x="9.18842" y="4.70605" width="46.6143" height="30.0304" rx="5.37857" fill="white"></rect>
      <rect x="9.07636" y="4.594" width="46.8384" height="30.2545" rx="5.49062" stroke="#D6DCE5"
        stroke-width="0.224107"></rect>
      <path
        d="M31.4823 23.3204H30.4338V15.1621H33.2133C33.9177 15.1621 34.5184 15.3969 35.0099 15.8665C35.5122 16.3362 35.7634 16.9095 35.7634 17.5866C35.7634 18.2802 35.5122 18.8535 35.0099 19.3177C34.5239 19.7818 33.9232 20.0112 33.2133 20.0112H31.4823V23.3204ZM31.4823 16.1669V19.0119H33.2352C33.6502 19.0119 33.9996 18.8699 34.2727 18.5914C34.5512 18.3129 34.6931 17.9744 34.6931 17.5921C34.6931 17.2153 34.5512 16.8822 34.2727 16.6037C33.9996 16.3143 33.6556 16.1723 33.2352 16.1723H31.4823V16.1669Z"
        fill="#3C4043"></path>
      <path
        d="M38.5046 17.5539C39.28 17.5539 39.8916 17.7614 40.3393 18.1764C40.7871 18.5914 41.011 19.1593 41.011 19.8801V23.3204H40.0117V22.5449H39.968C39.5366 23.1838 38.9578 23.5006 38.237 23.5006C37.6199 23.5006 37.1066 23.3204 36.6916 22.9545C36.2766 22.5886 36.0691 22.1354 36.0691 21.5893C36.0691 21.0105 36.2875 20.5518 36.7244 20.2132C37.1612 19.8692 37.7455 19.6999 38.4718 19.6999C39.0943 19.6999 39.6076 19.8146 40.0063 20.044V19.8037C40.0063 19.4378 39.8643 19.132 39.5749 18.8754C39.2854 18.6187 38.9469 18.4931 38.5592 18.4931C37.9749 18.4931 37.5107 18.7388 37.1722 19.2358L36.2493 18.6569C36.7572 17.9197 37.5107 17.5539 38.5046 17.5539ZM37.1503 21.6057C37.1503 21.8787 37.265 22.1081 37.4998 22.2883C37.7292 22.4685 38.0022 22.5613 38.3134 22.5613C38.7558 22.5613 39.1489 22.3975 39.4929 22.0699C39.837 21.7422 40.0117 21.36 40.0117 20.9177C39.6841 20.661 39.2308 20.53 38.6465 20.53C38.2206 20.53 37.8657 20.6337 37.5817 20.8357C37.2923 21.0487 37.1503 21.3054 37.1503 21.6057Z"
        fill="#3C4043"></path>
      <path
        d="M46.712 17.7341L43.2172 25.7723H42.136L43.4356 22.96L41.1312 17.7341H42.2725L43.9325 21.7423H43.9544L45.5707 17.7341H46.712Z"
        fill="#3C4043"></path>
      <path
        d="M27.3119 19.3504C27.3119 19.0086 27.2813 18.6815 27.2245 18.367H22.8298V20.169L25.3608 20.1695C25.2582 20.7691 24.9278 21.2803 24.4216 21.621V22.7901H25.9282C26.8079 21.9759 27.3119 20.7724 27.3119 19.3504Z"
        fill="#4285F4"></path>
      <path
        d="M24.4221 21.6211C24.0027 21.9039 23.4627 22.0694 22.8309 22.0694C21.6104 22.0694 20.5751 21.247 20.2043 20.1385H18.6502V21.3442C19.4202 22.8721 21.0027 23.9205 22.8309 23.9205C24.0945 23.9205 25.156 23.505 25.9287 22.7896L24.4221 21.6211Z"
        fill="#34A853"></path>
      <path
        d="M20.0579 19.244C20.0579 18.9327 20.1098 18.6318 20.2043 18.3489V17.1432H18.6502C18.3318 17.775 18.1527 18.4882 18.1527 19.244C18.1527 19.9997 18.3324 20.7129 18.6502 21.3447L20.2043 20.139C20.1098 19.8561 20.0579 19.5552 20.0579 19.244Z"
        fill="#FABB05"></path>
      <path
        d="M22.8309 16.4181C23.5206 16.4181 24.1382 16.6556 24.6258 17.1198L25.9609 15.7857C25.15 15.0305 24.0928 14.5669 22.8309 14.5669C21.0032 14.5669 19.4201 15.6153 18.6502 17.1432L20.2043 18.3489C20.5751 17.2404 21.6104 16.4181 22.8309 16.4181Z"
        fill="#E94235"></path>
    </g>
    <defs>
      <filter id="filter0_dd_16603_522" x="8.58307e-06" y="-0.000209332" width="64.9911" height="48.4071"
        filterUnits="userSpaceOnUse" color-interpolation-filters="sRGB">
        <feFlood flood-opacity="0" result="BackgroundImageFix"></feFlood>
        <feColorMatrix in="SourceAlpha" type="matrix" values="0 0 0 0 0 0 0 0 0 0 0 0 0 0 0 0 0 0 127 0"
          result="hardAlpha"></feColorMatrix>
        <feOffset dy="0.448214"></feOffset>
        <feGaussianBlur stdDeviation="2.24107"></feGaussianBlur>
        <feColorMatrix type="matrix" values="0 0 0 0 0.717647 0 0 0 0 0.717647 0 0 0 0 0.717647 0 0 0 0.08 0">
        </feColorMatrix>
        <feBlend mode="normal" in2="BackgroundImageFix" result="effect1_dropShadow_16603_522"></feBlend>
        <feColorMatrix in="SourceAlpha" type="matrix" values="0 0 0 0 0 0 0 0 0 0 0 0 0 0 0 0 0 0 127 0"
          result="hardAlpha"></feColorMatrix>
        <feOffset dy="4.48214"></feOffset>
        <feGaussianBlur stdDeviation="4.48214"></feGaussianBlur>
        <feColorMatrix type="matrix" values="0 0 0 0 0.717647 0 0 0 0 0.717647 0 0 0 0 0.717647 0 0 0 0.08 0">
        </feColorMatrix>
        <feBlend mode="normal" in2="effect1_dropShadow_16603_522" result="effect2_dropShadow_16603_522"></feBlend>
        <feBlend mode="normal" in="SourceGraphic" in2="effect2_dropShadow_16603_522" result="shape"></feBlend>
      </filter>
    </defs>
  </symbol>

</svg>