<svg xmlns="http://www.w3.org/2000/svg">

  <symbol id="top-cross" width="20" height="20" viewBox="0 0 20 20" fill="none">
    <path
      d="M16.2883 14.9617C16.4644 15.1378 16.5634 15.3767 16.5634 15.6258C16.5634 15.8749 16.4644 16.1137 16.2883 16.2898C16.1122 16.466 15.8733 16.5649 15.6242 16.5649C15.3752 16.5649 15.1363 16.466 14.9602 16.2898L10 11.3281L5.03831 16.2883C4.86219 16.4644 4.62332 16.5633 4.37425 16.5633C4.12517 16.5633 3.8863 16.4644 3.71018 16.2883C3.53406 16.1122 3.43512 15.8733 3.43512 15.6242C3.43512 15.3751 3.53406 15.1363 3.71018 14.9602L8.6719 10L3.71175 5.03828C3.53563 4.86216 3.43668 4.62329 3.43668 4.37422C3.43668 4.12515 3.53563 3.88628 3.71175 3.71016C3.88787 3.53404 4.12674 3.43509 4.37581 3.43509C4.62488 3.43509 4.86375 3.53404 5.03987 3.71016L10 8.67188L14.9617 3.70938C15.1379 3.53326 15.3767 3.43431 15.6258 3.43431C15.8749 3.43431 16.1137 3.53326 16.2899 3.70938C16.466 3.8855 16.5649 4.12437 16.5649 4.37344C16.5649 4.62251 16.466 4.86138 16.2899 5.0375L11.3282 10L16.2883 14.9617Z"
      fill="white" />
  </symbol>

  <symbol id="burger" width="19" height="15" viewBox="0 0 19 15" fill="none">
    <path
      d="M18.75 7.125C18.75 7.42337 18.6315 7.70952 18.4205 7.92049C18.2095 8.13147 17.9234 8.25 17.625 8.25H1.125C0.826631 8.25 0.540483 8.13147 0.329505 7.92049C0.118526 7.70952 0 7.42337 0 7.125C0 6.82663 0.118526 6.54048 0.329505 6.3295C0.540483 6.11853 0.826631 6 1.125 6H17.625C17.9234 6 18.2095 6.11853 18.4205 6.3295C18.6315 6.54048 18.75 6.82663 18.75 7.125ZM1.125 2.25H17.625C17.9234 2.25 18.2095 2.13147 18.4205 1.9205C18.6315 1.70952 18.75 1.42337 18.75 1.125C18.75 0.826631 18.6315 0.540483 18.4205 0.329505C18.2095 0.118526 17.9234 0 17.625 0H1.125C0.826631 0 0.540483 0.118526 0.329505 0.329505C0.118526 0.540483 0 0.826631 0 1.125C0 1.42337 0.118526 1.70952 0.329505 1.9205C0.540483 2.13147 0.826631 2.25 1.125 2.25ZM17.625 12H1.125C0.826631 12 0.540483 12.1185 0.329505 12.3295C0.118526 12.5405 0 12.8266 0 13.125C0 13.4234 0.118526 13.7095 0.329505 13.9205C0.540483 14.1315 0.826631 14.25 1.125 14.25H17.625C17.9234 14.25 18.2095 14.1315 18.4205 13.9205C18.6315 13.7095 18.75 13.4234 18.75 13.125C18.75 12.8266 18.6315 12.5405 18.4205 12.3295C18.2095 12.1185 17.9234 12 17.625 12Z"
      fill="black" />
  </symbol>

  <symbol id="cross" viewBox="0 0 24 24" fill="none">
    <path d="M18 6L6 18M6 6L18 18" stroke="#C9C69B" stroke-width="2" stroke-linecap="round" stroke-linejoin="round" />
  </symbol>

  <symbol id="arrow-down" width="12" height="7" viewBox="0 0 12 7" fill="none">
    <path
      d="M11.2826 1.28318L6.28255 6.28318C6.21287 6.3531 6.13008 6.40857 6.03892 6.44643C5.94775 6.48428 5.85001 6.50377 5.7513 6.50377C5.65259 6.50377 5.55485 6.48428 5.46369 6.44643C5.37252 6.40857 5.28973 6.3531 5.22005 6.28318L0.220051 1.28318C0.0791548 1.14228 -2.09952e-09 0.951183 0 0.751926C2.09952e-09 0.552669 0.0791548 0.361572 0.220051 0.220676C0.360947 0.0797797 0.552044 0.000625136 0.751301 0.000625133C0.950558 0.000625131 1.14165 0.0797797 1.28255 0.220676L5.75193 4.69005L10.2213 0.220051C10.3622 0.079155 10.5533 0 10.7526 0C10.9518 0 11.1429 0.079155 11.2838 0.220051C11.4247 0.360948 11.5039 0.552044 11.5039 0.751301C11.5039 0.950559 11.4247 1.14165 11.2838 1.28255L11.2826 1.28318Z" />
  </symbol>

  <symbol id="search" width="24" height="24" viewBox="0 0 24 24" fill="none">
    <path
      d="M21.7959 20.2041L17.3437 15.75C18.6787 14.0104 19.3019 11.8282 19.087 9.64607C18.8722 7.4639 17.8353 5.44516 16.1867 3.99937C14.5382 2.55357 12.4014 1.78899 10.2098 1.86071C8.01829 1.93244 5.93607 2.8351 4.38558 4.38559C2.83509 5.93608 1.93243 8.0183 1.8607 10.2098C1.78898 12.4014 2.55356 14.5382 3.99936 16.1867C5.44515 17.8353 7.46389 18.8722 9.64606 19.087C11.8282 19.3019 14.0104 18.6787 15.75 17.3438L20.2059 21.8006C20.3106 21.9053 20.4348 21.9883 20.5715 22.0449C20.7083 22.1016 20.8548 22.1307 21.0028 22.1307C21.1508 22.1307 21.2973 22.1016 21.4341 22.0449C21.5708 21.9883 21.695 21.9053 21.7997 21.8006C21.9043 21.696 21.9873 21.5717 22.044 21.435C22.1006 21.2983 22.1298 21.1517 22.1298 21.0037C22.1298 20.8558 22.1006 20.7092 22.044 20.5725C21.9873 20.4358 21.9043 20.3115 21.7997 20.2069L21.7959 20.2041ZM4.12499 10.5C4.12499 9.23915 4.49888 8.0066 5.19938 6.95824C5.89987 5.90988 6.89551 5.09278 8.06039 4.61027C9.22527 4.12776 10.5071 4.00151 11.7437 4.2475C12.9803 4.49348 14.1162 5.10064 15.0078 5.9922C15.8994 6.88376 16.5065 8.01967 16.7525 9.2563C16.9985 10.4929 16.8722 11.7747 16.3897 12.9396C15.9072 14.1045 15.0901 15.1001 14.0418 15.8006C12.9934 16.5011 11.7608 16.875 10.5 16.875C8.80977 16.8733 7.18927 16.2011 5.99411 15.0059C4.79894 13.8107 4.12673 12.1902 4.12499 10.5Z"
      fill="black" fill-opacity="0.4" />
  </symbol>

  <symbol id="search-mobile" width="21" height="21" viewBox="0 0 21 21" fill="none">
    <path
      d="M19.9399 18.348L15.4877 13.8939C16.8226 12.1544 17.4458 9.97216 17.2309 7.78998C17.0161 5.60781 15.9792 3.58907 14.3306 2.14328C12.6821 0.697486 10.5453 -0.0670986 8.35376 0.00462578C6.16221 0.0763502 4.07999 0.979012 2.5295 2.5295C0.979012 4.07999 0.0763502 6.16221 0.00462578 8.35376C-0.0670986 10.5453 0.697486 12.6821 2.14328 14.3306C3.58907 15.9792 5.60781 17.0161 7.78998 17.2309C9.97216 17.4458 12.1544 16.8226 13.8939 15.4877L18.3499 19.9445C18.4545 20.0492 18.5787 20.1322 18.7155 20.1888C18.8522 20.2455 18.9987 20.2746 19.1467 20.2746C19.2947 20.2746 19.4413 20.2455 19.578 20.1888C19.7147 20.1322 19.839 20.0492 19.9436 19.9445C20.0482 19.8399 20.1313 19.7157 20.1879 19.5789C20.2445 19.4422 20.2737 19.2957 20.2737 19.1477C20.2737 18.9997 20.2445 18.8531 20.1879 18.7164C20.1313 18.5797 20.0482 18.4554 19.9436 18.3508L19.9399 18.348ZM2.26891 8.64392C2.26891 7.38306 2.6428 6.15052 3.3433 5.10215C4.04379 4.05379 5.03943 3.23669 6.20431 2.75418C7.36919 2.27167 8.65099 2.14543 9.88762 2.39141C11.1242 2.63739 12.2602 3.24455 13.1517 4.13611C14.0433 5.02767 14.6504 6.16359 14.8964 7.40021C15.1424 8.63684 15.0162 9.91864 14.5336 11.0835C14.0511 12.2484 13.234 13.244 12.1857 13.9445C11.1373 14.645 9.90477 15.0189 8.64392 15.0189C6.95369 15.0172 5.3332 14.345 4.13803 13.1498C2.94286 11.9546 2.27065 10.3341 2.26891 8.64392Z"
      fill="black" />
  </symbol>

  <symbol id="cart" width="23" height="21" viewBox="0 0 23 21" fill="none">
    <path
      d="M9.375 18.375C9.375 18.7458 9.26503 19.1084 9.059 19.4167C8.85298 19.725 8.56014 19.9654 8.21753 20.1073C7.87492 20.2492 7.49792 20.2863 7.1342 20.214C6.77049 20.1416 6.4364 19.963 6.17417 19.7008C5.91195 19.4386 5.73337 19.1045 5.66103 18.7408C5.58868 18.3771 5.62581 18.0001 5.76773 17.6575C5.90964 17.3149 6.14996 17.022 6.45831 16.816C6.76665 16.61 7.12916 16.5 7.5 16.5C7.99728 16.5 8.47419 16.6975 8.82582 17.0492C9.17745 17.4008 9.375 17.8777 9.375 18.375ZM17.25 16.5C16.8792 16.5 16.5166 16.61 16.2083 16.816C15.9 17.022 15.6596 17.3149 15.5177 17.6575C15.3758 18.0001 15.3387 18.3771 15.411 18.7408C15.4834 19.1045 15.662 19.4386 15.9242 19.7008C16.1864 19.963 16.5205 20.1416 16.8842 20.214C17.2479 20.2863 17.6249 20.2492 17.9675 20.1073C18.3101 19.9654 18.603 19.725 18.809 19.4167C19.015 19.1084 19.125 18.7458 19.125 18.375C19.125 17.8777 18.9275 17.4008 18.5758 17.0492C18.2242 16.6975 17.7473 16.5 17.25 16.5ZM22.0753 5.20594L19.5169 13.5216C19.3535 14.0593 19.0211 14.5301 18.569 14.864C18.1169 15.1979 17.5692 15.3771 17.0072 15.375H7.77469C7.2046 15.3732 6.65046 15.1866 6.1953 14.8433C5.74015 14.5001 5.40848 14.0186 5.25 13.4709L2.04469 2.25H1.125C0.826631 2.25 0.540483 2.13147 0.329505 1.9205C0.118526 1.70952 0 1.42337 0 1.125C0 0.826631 0.118526 0.540483 0.329505 0.329505C0.540483 0.118526 0.826631 0 1.125 0H2.32687C2.73407 0.00125797 3.12988 0.134515 3.45493 0.379779C3.77998 0.625044 4.01674 0.969093 4.12969 1.36031L4.81312 3.75H21C21.1761 3.74999 21.3497 3.7913 21.5069 3.87061C21.664 3.94992 21.8004 4.06501 21.905 4.20664C22.0096 4.34826 22.0795 4.51246 22.1091 4.68602C22.1387 4.85958 22.1271 5.03766 22.0753 5.20594ZM19.4766 6H5.45531L7.41375 12.8531C7.43617 12.9315 7.48354 13.0005 7.54867 13.0495C7.6138 13.0986 7.69315 13.1251 7.77469 13.125H17.0072C17.0875 13.1252 17.1656 13.0996 17.2303 13.052C17.2949 13.0044 17.3426 12.9373 17.3662 12.8606L19.4766 6Z"
      fill="black" />
  </symbol>

  <symbol id="profile" width="21" height="21" viewBox="0 0 21 21" fill="none" xmlns="http://www.w3.org/2000/svg">
    <path
      d="M10.125 0C8.12247 0 6.1649 0.593821 4.49986 1.70637C2.83481 2.81892 1.53706 4.40023 0.770724 6.25033C0.00438702 8.10043 -0.196122 10.1362 0.194554 12.1003C0.585229 14.0643 1.54954 15.8685 2.96555 17.2845C4.38156 18.7005 6.18566 19.6648 8.14971 20.0555C10.1138 20.4461 12.1496 20.2456 13.9997 19.4793C15.8498 18.7129 17.4311 17.4152 18.5436 15.7501C19.6562 14.0851 20.25 12.1275 20.25 10.125C20.247 7.4406 19.1793 4.86699 17.2812 2.96883C15.383 1.07067 12.8094 0.00297771 10.125 0ZM5.58469 16.5534C6.10695 15.8393 6.79028 15.2585 7.57918 14.8581C8.36808 14.4577 9.24031 14.249 10.125 14.249C11.0097 14.249 11.8819 14.4577 12.6708 14.8581C13.4597 15.2585 14.1431 15.8393 14.6653 16.5534C13.3384 17.4945 11.7518 18 10.125 18C8.49823 18 6.91165 17.4945 5.58469 16.5534ZM7.5 9.375C7.5 8.85582 7.65396 8.34831 7.9424 7.91663C8.23083 7.48495 8.6408 7.1485 9.12046 6.94982C9.60012 6.75114 10.1279 6.69915 10.6371 6.80044C11.1463 6.90172 11.614 7.15173 11.9812 7.51884C12.3483 7.88596 12.5983 8.35369 12.6996 8.86289C12.8009 9.37209 12.7489 9.89989 12.5502 10.3795C12.3515 10.8592 12.0151 11.2692 11.5834 11.5576C11.1517 11.846 10.6442 12 10.125 12C9.42881 12 8.76113 11.7234 8.26885 11.2312C7.77657 10.7389 7.5 10.0712 7.5 9.375ZM16.3125 14.9944C15.5833 14.0669 14.6539 13.3164 13.5938 12.7987C14.2694 12.1146 14.7276 11.2458 14.9108 10.3019C15.0939 9.35788 14.9938 8.38083 14.623 7.49361C14.2523 6.6064 13.6274 5.84864 12.827 5.31568C12.0267 4.78271 11.0866 4.49834 10.125 4.49834C9.16343 4.49834 8.22333 4.78271 7.42297 5.31568C6.62262 5.84864 5.99775 6.6064 5.62698 7.49361C5.25621 8.38083 5.1561 9.35788 5.33924 10.3019C5.52239 11.2458 5.98061 12.1146 6.65625 12.7987C5.5961 13.3164 4.66668 14.0669 3.9375 14.9944C3.02161 13.8333 2.45114 12.4379 2.2914 10.9677C2.13165 9.49754 2.3891 8.01211 3.03425 6.68144C3.67941 5.35078 4.6862 4.22866 5.93939 3.44355C7.19257 2.65843 8.6415 2.24203 10.1203 2.24203C11.5991 2.24203 13.0481 2.65843 14.3012 3.44355C15.5544 4.22866 16.5612 5.35078 17.2064 6.68144C17.8515 8.01211 18.109 9.49754 17.9492 10.9677C17.7895 12.4379 17.219 13.8333 16.3031 14.9944H16.3125Z"
      fill="black" />
  </symbol>
  <symbol id="small-star" width="56" height="56" viewBox="0 0 56 56" fill="none">
    <path
      d="M28 0C28.9506 15.0527 40.9472 27.0495 56 28C40.9472 28.9506 28.9506 40.9472 28 56C27.0495 40.9472 15.0527 28.9506 0 28C15.0527 27.0495 27.0495 15.0527 28 0Z"
      fill="black" />
  </symbol>
  <symbol id="big-star" width="104" height="104" viewBox="0 0 104 104" fill="none">
    <path
      d="M52 0C53.7654 27.955 76.0448 50.2347 104 52C76.0448 53.7654 53.7654 76.0448 52 104C50.2347 76.0448 27.955 53.7654 0 52C27.955 50.2347 50.2347 27.955 52 0Z"
      fill="black" />
  </symbol>

  <!-- brends -->


  <symbol id="versace" width="167" height="34" viewBox="0 0 167 34" fill="none">
    <path fill-rule="evenodd" clip-rule="evenodd"
      d="M150.179 0.655656H166.482V3.25336C166.008 3.09436 165.513 3.0124 165.013 3.01061H155.642V15.1491H164.758C165.413 15.1491 165.996 15.0772 166.481 14.9548V17.5411C166.068 17.4443 165.499 17.3952 164.794 17.3952H155.642V29.9466H164.733C165.232 29.9466 165.826 29.874 166.481 29.7159V32.508H150.203C150.333 32.017 150.399 31.511 150.398 31.003V2.19691C150.398 1.56617 150.325 1.04435 150.179 0.655656ZM146.405 8.92219L141.695 8.88659C141.464 6.23976 139.947 3.67765 136.609 3.20567C129.459 2.56211 127.444 10.415 127.626 16.1572C127.809 21.6922 128.694 30.2015 136.075 30.2015C139.171 30.2015 142.144 27.0207 142.047 24.3383L146.405 24.3027C146.089 29.8377 139.741 33.0419 136.718 33.1516C126.389 33.5039 122.066 26.6206 121.848 16.7993C121.654 7.90346 125.296 0 135.504 0C144.244 0.121734 145.931 5.29294 146.405 8.92219ZM72.9408 28.8901L76.0611 26.2803C77.687 28.9635 79.0225 30.1886 82.2517 30.1886C85.5286 30.1886 88.285 28.1982 88.285 24.6786C88.285 22.9423 87.5802 21.522 86.1849 20.4542C85.5528 19.9559 83.951 19.0945 81.4259 17.8928C77.6507 16.0846 73.9731 13.7289 73.9731 8.99551C73.9731 3.02271 79.0467 0.388695 84.3995 0.193636C87.5681 0.0726134 91.5014 1.82174 93.091 3.78728L89.9231 6.22695C89.3581 5.17255 88.5181 4.29083 87.4923 3.6754C86.4665 3.05998 85.2932 2.73381 84.0969 2.73154C80.0541 2.73154 76.8498 7.41724 80.2 10.6464C81.0493 11.4715 82.7863 12.4909 85.4324 13.7047C89.6561 15.6838 93.2612 18.0501 93.2612 23.2825C93.2612 25.0908 92.7878 26.7779 91.853 28.3199C89.9722 31.4273 86.8278 32.9814 82.4339 32.9814C77.3838 32.9814 76.3892 31.8281 72.9408 28.8901ZM28.4893 0.655656H44.7782V3.25336C44.3051 3.09442 43.8094 3.01246 43.3103 3.01061H33.9396V15.1491H43.0554C43.7111 15.1491 44.2941 15.0772 44.7789 14.9548V17.5411C44.366 17.4443 43.7958 17.3952 43.1046 17.3952H33.9396V29.9466H43.0312C43.5289 29.9466 44.124 29.874 44.7789 29.7159V32.508H28.5143C28.6332 32.0151 28.6941 31.5101 28.6958 31.003V2.19691C28.6958 1.56617 28.6225 1.04435 28.4893 0.655656ZM0 0.655656H5.92368V0.947533C5.92368 1.21449 6.0084 1.56617 6.15434 2.01538L14.5049 27.1545L23.0754 1.90574C23.2085 1.48145 23.2818 1.06856 23.2818 0.655656H26.1586C25.8674 1.16537 25.6489 1.61529 25.515 2.01538L15.7308 31.2095C15.6339 31.4886 15.5492 31.9257 15.4766 32.5087H10.6208C10.5474 32.0674 10.4379 31.6329 10.2933 31.2095L0.704065 2.24603C0.482555 1.71187 0.251627 1.18166 0.0113903 0.655656H0ZM62.9145 17.262C66.7986 16.4968 69.7729 13.5232 69.7729 9.27457C69.7729 3.70186 65.1114 0.654944 59.8918 0.654944H50.3509C50.4841 1.14117 50.5574 1.65089 50.5574 2.18481V30.9774C50.5574 31.5968 50.4841 32.1186 50.3509 32.5073H56.0319C55.8929 32.0093 55.8235 31.4944 55.8254 30.9774V17.7476L57.6457 17.9419L67.1631 32.5073H72.8803L62.9145 17.262ZM61.9314 14.8345C60.8998 15.562 59.6611 15.9258 58.2409 15.9258H55.8133V2.97572H57.986C59.8441 2.97572 61.2878 3.43632 62.32 4.35822C63.7282 5.63394 64.4443 7.35744 64.4443 9.51804C64.4443 11.8488 63.6064 13.6207 61.9314 14.8345ZM120.901 31.1853L110.293 1.71211C110.175 1.37134 110.105 1.01572 110.086 0.655656H105.497C105.497 1.03225 105.436 1.43233 105.29 1.83313L95.0096 31.1853C94.875 31.6089 94.6572 32.0467 94.366 32.508H97.3275C97.3161 32.0225 97.3766 31.5733 97.5105 31.1853L100.556 22.5294H112.27L115.281 31.186C115.439 31.658 115.511 32.0951 115.511 32.508H121.654C121.301 32.0104 121.047 31.5612 120.901 31.1853ZM101.358 20.1865L106.31 5.80266L111.397 20.1865H101.358Z"
      fill="white" />
  </symbol>

  <symbol id="zara" width="91" height="38" viewBox="0 0 91 38" fill="none">
    <path
      d="M86.3324 36.8604L72.8501 0.0243821L72.841 0H72.5749L69.7985 7.56966L64.7441 21.3504L64.7323 21.3395C62.9806 19.8056 60.5091 18.8468 57.3965 18.4897L56.4472 18.3924L57.389 18.2726C62.5219 17.3573 65.9723 14.1403 65.9723 10.2644C65.9723 4.94948 60.9348 1.2397 53.7189 1.2397H38.7052V1.5088H43.0678V28.9721L32.4727 0.0242918L32.4632 0H32.1971L29.4207 7.56966L18.7123 36.7655L18.6464 36.7731C18.4634 36.7955 18.2824 36.8133 18.1034 36.8268C17.834 36.8477 17.5662 36.8603 17.2976 36.8603H6.47765L27.0448 1.50871L27.1977 1.24304H2.04322V12.1789H2.31013C2.35745 6.85219 5.48348 1.50871 12.3902 1.50871H20.7226L0 37.1251H27.9173V26.6479H27.6504C27.614 31.2906 24.9619 35.7003 19.1947 36.696L19.0114 36.7271L23.4036 24.7469H35.7075L40.141 36.8604H35.7675V37.1252H52.9333V36.8604H48.5411V18.5878H53.6091C58.7665 18.5878 61.7245 20.8743 61.7245 24.859V28.1003C61.7245 28.4575 61.749 28.9796 61.776 29.4163V29.4322L59.052 36.8587H55.4934V37.1235H62.8596V36.8587H59.3393L61.8199 30.0961C61.825 30.1615 61.8276 30.2009 61.8276 30.2009L61.896 30.8103L61.9619 31.2134C62.3758 33.707 63.3369 35.5401 64.8177 36.6616L65.0305 36.815C66.1555 37.5912 67.5535 37.9843 69.1879 37.9843C71.3527 37.9843 72.7962 37.4487 73.988 36.1881L73.8318 36.0422C72.7337 37.048 71.8122 37.4555 70.6576 37.4555C68.6903 37.4555 67.6608 35.0875 67.6608 32.7523V28.2109C67.6712 27.0841 67.4934 25.9634 67.1345 24.8942L67.0856 24.7535V24.7484H76.0851L80.5186 36.862H76.1452V37.1269H91V36.862L86.3324 36.8604ZM23.5015 24.4819L29.5627 7.95697L35.6104 24.4819H23.5015ZM48.5438 18.322V1.50871H52.4122C57.5798 1.50871 60.308 4.5572 60.308 10.3215C60.308 16.452 58.742 18.322 53.6091 18.322H48.5438ZM66.9807 24.4819L66.9545 24.4165C66.5546 23.4499 65.9723 22.568 65.239 21.8181L64.9856 21.5666L64.9586 21.5415L69.937 7.95697L75.9846 24.4819H66.9807Z"
      fill="white" />
  </symbol>

  <symbol id="gucci" width="156" height="33" viewBox="0 0 156 33" fill="none">
    <path
      d="M141.312 9.43605L141.021 9.52824C139.887 7.18474 138.268 5.31921 136.162 3.93163C134.089 2.54403 131.482 1.85022 128.34 1.85022C126.591 1.85022 124.923 2.20481 123.336 2.91399C121.749 3.59242 120.356 4.56374 119.158 5.82795C117.992 7.06135 117.053 8.55686 116.34 10.3145C115.627 12.0721 115.271 14.0147 115.271 16.1424C115.271 18.27 115.627 20.2126 116.34 21.9702C117.053 23.7278 117.992 25.2387 119.158 26.503C120.356 27.7364 121.749 28.6923 123.336 29.3707C124.923 30.049 126.591 30.3882 128.34 30.3882C131.45 30.3882 133.976 29.9257 135.919 29.0006C137.895 28.0448 139.563 26.5955 140.924 24.6529L141.215 24.7451L141.118 27.7053C140.373 28.4453 139.515 29.1083 138.543 29.6941C137.572 30.2492 136.519 30.7271 135.385 31.128C134.284 31.498 133.134 31.7755 131.936 31.9605C130.738 32.1766 129.539 32.2846 128.341 32.2846C125.847 32.2846 123.466 31.8991 121.199 31.1282C118.932 30.3573 116.94 29.2781 115.223 27.8905C113.506 26.4721 112.146 24.7762 111.142 22.8027C110.138 20.7985 109.636 18.5783 109.636 16.1423C109.636 13.7063 110.138 11.5016 111.142 9.5282C112.146 7.52386 113.506 5.8125 115.223 4.39412C116.94 2.97568 118.932 1.89644 121.199 1.15639C123.466 0.385491 125.847 3.98854e-05 128.341 3.98854e-05C129.539 3.98854e-05 130.738 0.0925452 131.936 0.277556C133.134 0.462566 134.284 0.755512 135.385 1.15639C136.519 1.52642 137.572 2.00437 138.543 2.59027C139.515 3.1453 140.373 3.79283 141.118 4.53287L141.312 9.43605ZM34.252 18.2704C33.8959 18.4244 33.5558 18.6249 33.2317 18.872C32.9076 19.1185 32.7456 19.4577 32.7456 19.8896V25.5786C31.1909 27.7063 29.199 29.356 26.7698 30.5277C24.3406 31.6995 21.6523 32.2854 18.7048 32.2854C16.2108 32.2854 13.8302 31.8999 11.563 31.129C9.29573 30.3581 7.30378 29.2789 5.58713 27.8913C3.87051 26.4729 2.51014 24.777 1.50605 22.8035C0.502017 20.7993 0 18.5791 0 16.1431C0 13.7071 0.502017 11.5024 1.50605 9.52895C2.51014 7.52462 3.87051 5.81326 5.58713 4.39488C7.30378 2.97644 9.29573 1.89721 11.563 1.15719C13.8302 0.386263 16.2108 0.000798165 18.7048 0.000798165C19.9032 0.000798165 21.1016 0.0933033 22.3001 0.278314C23.4984 0.463324 24.6483 0.756271 25.7495 1.15715C26.8831 1.52717 27.9358 2.00513 28.9075 2.59102C29.8791 3.14605 30.7375 3.79359 31.4825 4.53363L31.6771 9.43641L31.3856 9.52859C30.252 7.18508 28.6325 5.31953 26.5272 3.93195C24.4543 2.54435 21.8469 1.85054 18.7052 1.85054C16.9561 1.85054 15.2881 2.20515 13.7011 2.91435C12.114 3.59275 10.7212 4.56406 9.52279 5.82827C8.35675 7.0617 7.41748 8.55722 6.70498 10.3148C5.99236 12.0724 5.63605 14.0151 5.63605 16.1427C5.63605 18.2395 5.97615 20.1667 6.65635 21.9243C7.36894 23.6819 8.30824 25.1928 9.47425 26.4571C10.6726 27.6905 12.0654 28.6618 13.6524 29.371C15.2395 30.0494 16.9238 30.3886 18.7052 30.3886C22.0737 30.3886 24.9563 29.7719 27.3531 28.5385V19.8892C27.3531 19.4577 27.1751 19.1185 26.819 18.8716C26.4949 18.6251 26.171 18.4246 25.8473 18.27L25.8917 18.039C26.0534 18.0672 26.345 18.098 26.7662 18.1312C27.1875 18.1594 27.6248 18.1902 28.078 18.2234H32.2565C32.6451 18.1952 33.0176 18.1645 33.3739 18.1312C33.73 18.103 34.0052 18.0723 34.1996 18.039L34.252 18.2704ZM69.442 0.971783C69.1179 1.12577 68.794 1.32629 68.4703 1.57335C68.1462 1.81984 67.9682 2.28237 67.9362 2.96092C67.9066 3.70097 67.8743 4.64145 67.8393 5.78237C67.8393 6.89246 67.8245 8.15669 67.7949 9.57505C67.7949 10.9935 67.7801 12.5353 67.7505 14.2004V19.3808C67.7208 21.385 67.4616 23.0964 66.9728 24.5148C66.487 25.9332 65.8392 27.1203 65.0295 28.0762C64.2522 29.0322 63.3777 29.7876 62.406 30.3427C61.4666 30.8977 60.5273 31.314 59.5881 31.5915C58.6811 31.9 57.8228 32.085 57.0132 32.1465C56.2034 32.239 55.5718 32.2853 55.1184 32.2853C53.2722 32.2853 51.4907 32.054 49.7741 31.5915C48.0574 31.16 46.5513 30.4508 45.2558 29.4638C43.9602 28.4771 42.9238 27.1974 42.1465 25.6249C41.3691 24.0523 40.9804 22.1405 40.9804 19.8895V14.663V9.85256C40.9804 8.37245 40.9656 7.04655 40.936 5.87484C40.936 4.67224 40.9212 3.70093 40.8915 2.96088C40.8619 2.28249 40.6839 1.81996 40.3574 1.57331C40.0333 1.32681 39.7094 1.12629 39.3857 0.971744L39.4302 0.74076C39.5919 0.768961 39.8512 0.79969 40.2078 0.832946C40.5965 0.861147 40.9852 0.891876 41.3739 0.925132C41.7951 0.925132 42.2 0.939232 42.5885 0.967434H44.3375C44.7262 0.939232 45.131 0.925132 45.5521 0.925132C45.9733 0.896931 46.362 0.866202 46.7181 0.832946C47.1067 0.804745 47.3819 0.774016 47.5437 0.74076L47.5881 0.971744C47.232 1.12573 46.892 1.32625 46.5679 1.57331C46.2764 1.8198 46.1143 2.28233 46.0817 2.96088C46.0521 3.70093 46.0198 4.67224 45.9849 5.87484V19.8895C45.9849 23.2505 46.8108 25.7327 48.4626 27.3362C50.1145 28.9396 52.5599 29.7413 55.7989 29.7413C56.7381 29.7413 57.807 29.6333 59.0054 29.4173C60.2039 29.1708 61.3213 28.6774 62.3577 27.9372C63.4266 27.1971 64.3173 26.1488 65.0299 24.792C65.7748 23.4352 66.1473 21.6314 66.1473 19.3804C66.1473 16.9444 66.1325 14.8631 66.1029 13.1363C66.1029 11.3787 66.088 9.88319 66.0584 8.64976C66.0584 7.38552 66.0436 6.30628 66.014 5.41203C65.9844 4.51784 65.9521 3.70071 65.9171 2.96065C65.8874 2.28225 65.7094 1.81972 65.3829 1.57307C65.0588 1.32657 64.735 1.12604 64.4113 0.971464L64.4557 0.740521C64.8118 0.801978 65.2167 0.863741 65.6703 0.92581C66.1235 0.954011 66.5446 0.968112 66.9335 0.968112C67.2896 0.968112 67.6945 0.954011 68.1481 0.92581C68.6339 0.864353 69.055 0.80259 69.4113 0.740521L69.442 0.971783ZM104.696 9.43605L104.405 9.52824C103.271 7.18474 101.652 5.31921 99.5462 3.93163C97.4733 2.54403 94.8659 1.85022 91.7242 1.85022C89.9752 1.85022 88.3071 2.20481 86.72 2.91399C85.1329 3.59242 83.7402 4.56374 82.5418 5.82795C81.3758 7.06135 80.4365 8.55686 79.7239 10.3145C79.0114 12.0721 78.6551 14.0148 78.6551 16.1424C78.6551 18.27 79.0114 20.2126 79.7239 21.9702C80.4366 23.7278 81.3759 25.2387 82.5418 26.503C83.7402 27.7364 85.1329 28.6923 86.72 29.3707C88.3071 30.049 89.9752 30.3882 91.7243 30.3882C94.8336 30.3882 97.36 29.9257 99.3034 29.0006C101.279 28.0448 102.947 26.5955 104.307 24.6529L104.599 24.7451L104.502 27.7053C103.757 28.4453 102.899 29.1083 101.927 29.6941C100.955 30.2491 99.9027 30.7271 98.7691 31.128C97.6679 31.498 96.5181 31.7755 95.3196 31.9605C94.1212 32.1765 92.9228 32.2846 91.7245 32.2846C89.2304 32.2846 86.8498 31.8991 84.5826 31.1282C82.3153 30.3573 80.3234 29.2781 78.6068 27.8905C76.8901 26.4721 75.5297 24.7762 74.5257 22.8027C73.5216 20.7984 73.0196 18.5783 73.0196 16.1423C73.0196 13.7063 73.5216 11.5016 74.5257 9.52816C75.5297 7.52382 76.8901 5.81246 78.6068 4.39408C80.3234 2.97564 82.3153 1.8964 84.5826 1.15635C86.8499 0.385452 89.2305 0 91.7245 0C92.9228 0 94.1212 0.0925053 95.3197 0.277516C96.5181 0.462526 97.6679 0.755472 98.7691 1.15635C99.9027 1.52638 100.955 2.00433 101.927 2.59023C102.899 3.14526 103.757 3.79279 104.502 4.53283L104.696 9.43605ZM155.956 31.4987C155.794 31.4705 155.519 31.4397 155.13 31.4065C154.774 31.4065 154.385 31.3924 153.964 31.3642C153.543 31.3642 153.138 31.3501 152.749 31.3219H149.835C149.446 31.3501 149.057 31.3808 148.669 31.4141C148.312 31.4423 148.037 31.473 147.843 31.5062L147.798 31.3209C148.122 31.1669 148.446 30.9664 148.77 30.7193C149.094 30.4729 149.272 30.0103 149.304 29.3318C149.334 28.5917 149.349 27.8209 149.349 27.0191C149.378 26.2174 149.393 25.3077 149.393 24.2902V20.8212V16.1497V11.4782V7.96295C149.393 6.94539 149.378 6.05116 149.349 5.28026C149.349 4.47855 149.334 3.70767 149.304 2.96763C149.275 2.28923 149.097 1.82671 148.77 1.58005C148.446 1.30254 148.122 1.08677 147.798 0.932754L147.843 0.747504C148.037 0.808962 148.312 0.855214 148.669 0.886262C149.057 0.886262 149.446 0.900363 149.835 0.928564C150.256 0.956765 150.661 0.970866 151.049 0.970866H152.749C153.138 0.942665 153.543 0.928564 153.964 0.928564C154.385 0.900363 154.774 0.869634 155.13 0.836378C155.519 0.808177 155.794 0.777448 155.956 0.744192L156 0.929522C155.644 1.08351 155.304 1.29926 154.98 1.57678C154.688 1.82327 154.526 2.2858 154.494 2.96436C154.464 3.7044 154.432 4.47527 154.397 5.27699V27.0159C154.426 27.8176 154.459 28.5885 154.494 29.3285C154.523 30.0069 154.685 30.4694 154.98 30.7161C155.304 30.9626 155.644 31.1631 156 31.3176L155.956 31.4987Z"
      fill="white" />
  </symbol>

  <symbol id="prada" width="194" height="32" viewBox="0 0 194 32" fill="none">
    <path fill-rule="evenodd" clip-rule="evenodd"
      d="M0 0.90175L2.93217 4.20848V28.4106L0.758974 31.5774L14.0684 31.5978L11.6695 28.6839L11.4204 19.9679L24.2536 20.0375C28.1434 18.7425 32.1421 15.9815 32.3342 10.3996C32.2728 4.99032 28.9703 1.52086 25.136 0.830605L0 0.90175ZM10.9449 2.44953V17.9977L20.7911 18.0689C23.0315 16.2623 24.7298 14.8787 24.6619 10.5411C24.6298 7.00433 23.8832 3.92011 20.5873 2.45029L10.9449 2.44953ZM38.4936 0.725402L41.4258 4.03289V28.2351L39.2526 31.4033L52.5613 31.4222L50.1624 28.5083L49.9133 19.7923H49.9666L63.7165 31.5206L75.1274 31.4275L64.7129 22.4193H56.0187L52.9543 19.8089L62.7465 19.8619C66.6363 18.5669 70.6342 15.8059 70.8271 10.224C70.7665 4.81548 67.4639 1.34527 63.6289 0.65577L38.4936 0.725402ZM49.4378 2.27318V17.8214L59.284 17.8925C61.5251 16.0859 63.2227 14.7024 63.1548 10.364C63.1227 6.82798 62.3761 3.74301 59.0802 2.27318H49.4378ZM86.1132 0.690586H97.5891L112.528 28.4106C113.174 30.551 115.108 30.2869 116.398 31.2254H101.935L104.108 30.5457L103.972 28.4818L100.237 22.5011L87.5391 22.5722L84.8232 28.3418C84.7326 28.998 84.0306 29.496 84.5514 30.3111L85.5705 31.2958L79.3234 31.155L82.04 30.3111L92.2924 8.71181V7.23365L87.9606 1.45502L86.1132 0.690586ZM88.3419 20.5976L93.616 10.6123L99.1071 20.5416L88.3419 20.5976ZM163.715 0.751135H175.19L190.129 28.4712C190.776 30.6116 192.709 30.3475 194 31.286H179.536L181.709 30.6048L181.573 28.5408L177.839 22.5616L165.141 22.6328L162.425 28.4008C162.333 29.0585 161.632 29.5565 162.152 30.3717L163.171 31.3563L156.925 31.2156L159.642 30.3717L169.894 8.77235V7.29345L165.562 1.51557L163.715 0.751135ZM165.944 20.6589L171.218 10.6736L176.709 20.6013L165.944 20.6589ZM120.367 0.402222L140.81 0.514994C147.394 2.05672 151.582 6.07868 152.881 13.0948L152.826 18.5669C151.626 24.8186 147.693 29.1319 140.756 31.3155L120.258 31.373L120.255 30.7107C123.372 30.4754 123.621 30.1196 123.629 28.2699V3.33506C123.594 1.96741 123.32 1.11594 120.312 1.02209L120.367 0.402222ZM131.988 2.53581L131.968 29.5134C134.664 29.5225 137.003 29.7753 138.325 29.1009C141.319 27.7333 142.71 25.633 142.837 23.6598L142.765 7.73016C142.766 5.1818 140 3.38274 138.404 2.91425C137.262 2.49116 134.983 2.47375 131.988 2.53581Z"
      fill="white" stroke="white" stroke-width="1.02419" stroke-miterlimit="2.613" />
  </symbol>

  <symbol id="calvin-clein" width="207" height="34" viewBox="0 0 207 34" fill="none">
    <path fill-rule="evenodd" clip-rule="evenodd"
      d="M16.6481 30.4522C9.40945 30.4522 3.2308 23.8867 3.2308 16.7255C3.2308 9.59072 9.28013 2.89479 16.5961 2.89479C21.4053 2.89479 24.8682 5.22146 27.6867 8.86674H31.2281C30.1681 6.95347 29.0308 5.19603 27.2988 3.82545C24.3255 1.42142 20.4735 0 16.6481 0C7.47074 0 0 7.57464 0 16.7C0 25.8508 7.57464 33.3481 16.7 33.3481C20.4227 33.3481 24.068 31.9786 26.9893 29.6774C28.8252 28.204 30.1173 26.2907 31.3586 24.3255H27.8172C25.0241 27.9708 21.4573 30.4522 16.6481 30.4522ZM53.3574 13.0028C51.1346 10.1334 48.1094 8.32404 44.3613 8.32404C37.64 8.32404 32.108 13.7798 32.108 20.5012C32.108 27.2214 37.6665 32.728 44.3613 32.728C48.2653 32.728 50.9788 31.0988 53.3574 28.1001V32.1842H56.2787V8.89216H53.3574V13.0028ZM44.2066 30.0388C39.0614 30.0388 35.0027 25.5668 35.0027 20.5266C35.0027 15.5107 39.036 11.0132 44.2066 11.0132C49.3507 11.0132 53.3574 15.5118 53.3574 20.5266C53.3574 25.5668 49.3242 30.0388 44.2066 30.0388ZM59.8201 32.1842H62.9492V0.670921H59.8201V32.1842ZM74.7627 28.487L66.8521 8.89216H63.7495L73.2374 32.1842H76.3908L85.8533 8.89216H82.8027L74.7627 28.487ZM87.1454 32.1842H90.2734V8.89216H87.1454V32.1842ZM87.1454 5.89348H90.2734V0.670921H87.1454V5.89348ZM103.743 8.32293C100.795 8.32293 98.7014 9.87478 96.7627 11.9428V8.89216H93.8668V32.1842H96.9428V17.991C96.9174 14.2429 100.019 11.0121 103.793 11.0121C108.523 11.0121 110.902 15.1228 110.902 19.3627V32.1853H113.796V19.3627C113.798 13.3134 110.257 8.32293 103.743 8.32293ZM142.829 0.670921L128.611 18.7415V0.670921H125.535V32.1842H128.611V23.5242L132.644 18.5094L142.907 32.1842H146.812L134.608 16.0269L146.812 0.670921H142.829ZM147.948 32.1842H151V0.670921H147.948V32.1842ZM176.256 14.7602C174.136 10.8043 169.896 8.32293 165.423 8.32293C158.755 8.32293 153.118 13.8815 153.118 20.5509C153.118 27.2711 158.806 32.7269 165.477 32.7269C168.655 32.7269 171.785 31.4602 174.084 29.2629C175.481 27.9443 176.308 26.2896 177.056 24.5576H173.775C172.119 27.7895 169.198 30.0377 165.422 30.0377C163.123 30.0377 160.874 29.107 159.168 27.5298C157.408 25.9282 156.634 23.9619 156.296 21.6363H177.781C177.782 19.2068 177.445 16.8802 176.256 14.7602ZM156.401 18.9482C157.334 14.5801 160.771 11.0121 165.477 11.0121C169.432 11.0121 173.672 13.4427 174.603 18.9482H156.401ZM180.057 32.1842H183.132V8.89216H180.057V32.1842ZM180.057 5.99738H183.132V0.670921H180.057V5.99738ZM196.654 8.32293C193.654 8.32293 191.56 9.87478 189.595 11.9428V8.89216H186.648V32.1842H189.751V17.991C189.725 14.2175 192.905 11.0121 196.704 11.0121C201.411 11.0121 203.893 15.1228 203.893 19.3627V32.1853H206.788V19.3627C206.788 13.3134 203.193 8.32293 196.654 8.32293Z"
      fill="white" />
  </symbol>
</svg>